<svg width="16" height="16" viewBox="0 0 16 16" fill="none" xmlns="http://www.w3.org/2000/svg">
<path d="M13.0743 9.67083C13.0381 9.58981 12.9885 9.51544 12.9277 9.45083L9.84099 6.3375C9.71346 6.22828 9.54941 6.17121 9.38162 6.17769C9.21384 6.18417 9.05468 6.25373 8.93595 6.37246C8.81722 6.49119 8.74766 6.65035 8.74118 6.81813C8.7347 6.98591 8.79177 7.14996 8.90099 7.2775L10.8477 9.22416H6.18099C5.65056 9.22416 5.14185 9.01345 4.76678 8.63838C4.3917 8.2633 4.18099 7.7546 4.18099 7.22417V4C4.18099 3.82319 4.11075 3.65502 3.98573 3.53C3.8607 3.40498 3.69113 3.34375 3.51432 3.34375C3.33751 3.34375 3.16794 3.40498 3.04292 3.53C2.91789 3.65502 2.84766 3.82319 2.84766 4V7.25083C2.84766 8.13489 3.19885 8.98273 3.82397 9.60785C4.44909 10.233 5.29694 10.5842 6.18099 10.5842H10.8477L8.90099 12.5308C8.8385 12.5928 8.78891 12.6665 8.75506 12.7478C8.72122 12.829 8.70379 12.9162 8.70379 13.0042C8.70379 13.0922 8.72122 13.1793 8.75506 13.2605C8.78891 13.3418 8.8385 13.4155 8.90099 13.4775C8.96328 13.5393 9.03716 13.5882 9.11839 13.6213C9.19961 13.6545 9.28659 13.6713 9.37432 13.6708C9.54922 13.6701 9.71682 13.6007 9.84099 13.4775L12.9277 10.3908C12.9907 10.328 13.0406 10.2532 13.0743 10.1708C13.1392 10.0105 13.1392 9.83119 13.0743 9.67083Z" fill="#FBB03B"/>
</svg>
