<svg width="25" height="24" viewBox="0 0 25 24" fill="none" xmlns="http://www.w3.org/2000/svg">
<path d="M15.5498 6.14648C17.9876 6.14648 19.9639 5.2496 19.9639 4.14355V3.70996C19.9639 2.60392 17.9876 1.70703 15.5498 1.70703C13.1121 1.70711 11.1357 2.60397 11.1357 3.70996V4.14355C11.1357 5.24955 13.1121 6.1464 15.5498 6.14648ZM9.18555 9.53906C9.61227 9.53905 10.0247 9.51128 10.415 9.45996V5.17871C10.0247 5.12743 9.61227 5.09963 9.18555 5.09961C6.74774 5.09961 4.77148 5.9965 4.77148 7.10254V7.53613C4.77148 8.64214 6.74774 9.53906 9.18555 9.53906ZM15.5498 8.38086C17.9876 8.38086 19.9639 7.48397 19.9639 6.37793V5.94336C19.9638 5.80289 19.9318 5.66547 19.8711 5.5332C19.4539 6.44251 17.6777 7.12598 15.5498 7.12598C13.422 7.12591 11.6457 6.44246 11.2285 5.5332C11.1678 5.66547 11.1358 5.80289 11.1357 5.94336V6.37793C11.1357 7.48392 13.1121 8.38078 15.5498 8.38086ZM15.5498 10.6152C17.9874 10.6152 19.9635 9.71922 19.9639 8.61328V8.17871C19.9639 8.03809 19.9318 7.90096 19.8711 7.76855C19.4538 8.67779 17.6776 9.36133 15.5498 9.36133C13.422 9.36126 11.6457 8.67777 11.2285 7.76855C11.1678 7.9009 11.1357 8.03816 11.1357 8.17871V8.61328C11.1361 9.71917 13.1124 10.6152 15.5498 10.6152ZM9.18555 11.7656C9.61225 11.7656 10.0247 11.7378 10.415 11.6865V10.4316C10.0247 10.4829 9.61236 10.5107 9.18555 10.5107C7.05762 10.5107 5.28146 9.82722 4.86426 8.91797C4.80352 9.05037 4.77151 9.18759 4.77148 9.32812V9.7627C4.77163 10.8687 6.74782 11.7656 9.18555 11.7656ZM15.5498 12.9795C17.9875 12.9795 19.9638 12.0826 19.9639 10.9766V10.542C19.9638 10.4015 19.9318 10.2642 19.8711 10.1318C19.4539 11.0411 17.6777 11.7246 15.5498 11.7246C13.422 11.7245 11.6457 11.0411 11.2285 10.1318C11.1678 10.2642 11.1358 10.4015 11.1357 10.542V10.9766C11.1358 12.0825 13.1122 12.9794 15.5498 12.9795ZM16.2236 20.6006C16.5765 20.1793 16.8213 19.8856 17.7178 18.8066C17.9228 18.5617 18.1201 18.328 18.1543 18.2881C18.1888 18.2444 18.8304 17.4767 19.5801 16.5791C20.3289 15.6791 21.0122 14.8615 21.0947 14.7646C21.1773 14.665 21.2805 14.5201 21.3232 14.4375C21.3944 14.3009 21.4023 14.258 21.4023 14.002C21.4023 13.7516 21.3943 13.6998 21.3262 13.5605C21.2237 13.3498 21.0524 13.1814 20.8389 13.0703C20.688 12.9934 20.6249 12.9792 20.4199 12.9707C20.2692 12.965 20.1326 12.9763 20.0615 13.002C19.9561 13.0362 19.4438 13.3612 18.043 14.2754C17.1007 14.8933 16.3774 15.3601 16.1182 15.5254L15.8447 15.6963L15.8271 15.9238C15.7873 16.4278 15.5004 17.0149 15.1162 17.3652C14.7916 17.6643 14.3297 17.8836 13.9111 17.9463C13.8025 17.9605 13.1133 17.9746 12.3818 17.9746H11.0498L11.0586 17.582L11.0664 17.1914L12.5049 17.1777C13.4672 17.1663 13.9744 17.1517 14.0342 17.1289C14.39 17.0035 14.7574 16.6813 14.9082 16.3652C14.9537 16.2711 15.0105 16.095 15.0332 15.9756C15.1813 15.2749 14.7228 14.5173 14.0195 14.3008C13.843 14.2467 13.7485 14.2441 11.0977 14.2441H8.35938L7.74121 14.5771L7.12305 14.9131V21.0508H15.8506L16.2236 20.6006ZM5.73535 22.2012C5.99725 22.0759 6.11685 21.9615 6.23926 21.7109L6.34766 21.4941V14.3711L6.2793 14.2002C6.18533 13.9638 5.92318 13.7047 5.69824 13.6221C5.5418 13.5623 5.49026 13.5596 4.5 13.5596H3.46582L3.26367 13.6592C3.04181 13.7702 2.89987 13.9099 2.7832 14.1348L2.70312 14.2852V21.5488L2.76562 21.6855C2.85956 21.8847 3.08728 22.1091 3.29492 22.2061L3.47168 22.2891H5.55078L5.73535 22.2012Z" fill="#9DA9BB"/>
</svg>
