<svg width="25" height="24" viewBox="0 0 25 24" fill="none" xmlns="http://www.w3.org/2000/svg">
<g clip-path="url(#clip0_1454_24362)">
<path d="M23.1915 6.69639C23.1009 6.69639 23.0081 6.7094 22.9154 6.73488L21.8667 7.0237L20.7776 4.37071C20.4691 3.6192 19.5571 3.00781 18.7447 3.00781H8.55269C7.74036 3.00781 6.82826 3.6192 6.51973 4.37071L5.43217 7.02007L4.39649 6.73488C4.3066 6.70976 4.21374 6.69681 4.12041 6.69639C3.6248 6.69639 3.26513 7.07503 3.26513 7.59677V8.21504C3.26513 8.24033 3.26717 8.26516 3.26894 8.29017C2.83213 8.56507 2.42739 8.88791 2.06226 9.25267C0.762682 10.5521 0.046875 12.2802 0.046875 14.1183C0.046875 15.9564 0.762682 17.6844 2.06235 18.9839C3.36211 20.2835 5.09007 20.9994 6.92803 20.9994C8.766 20.9994 10.4941 20.2836 11.7937 18.9839C12.5513 18.2264 13.1087 17.3227 13.4435 16.337H19.8537V17.6531C19.8537 18.2621 20.3491 18.7575 20.9581 18.7575H22.4004C23.0093 18.7575 23.5048 18.2621 23.5048 17.6531V12.3827C23.5048 11.6278 23.2717 10.4457 22.985 9.74745L22.8091 9.31934H22.9425C23.5514 9.31934 24.0469 8.82391 24.0469 8.21494V7.59668C24.0469 7.07503 23.6871 6.69639 23.1915 6.69639ZM7.87138 4.70686C8.05586 4.25727 8.60458 3.88951 9.09043 3.88951H18.2069C18.6928 3.88951 19.2414 4.25727 19.4259 4.70686L21.0734 8.71958C21.2578 9.16917 21.0113 9.53693 20.5253 9.53693H12.0613C11.9747 9.43969 11.8854 9.34483 11.7936 9.25248C10.4938 7.95272 8.76581 7.23701 6.92794 7.23701C6.89568 7.23701 6.86387 7.23887 6.8317 7.23933L7.87138 4.70686ZM6.92803 18.9399C5.64018 18.9399 4.4294 18.4382 3.5187 17.5275C2.60799 16.6169 2.10652 15.4062 2.10652 14.1183C2.10652 12.8303 2.60809 11.6196 3.5187 10.7089C4.4294 9.79831 5.64018 9.29674 6.92803 9.29674C8.21589 9.29674 9.42667 9.79831 10.3374 10.7089C11.248 11.6196 11.7496 12.8303 11.7496 14.1183C11.7496 15.4062 11.2481 16.6169 10.3374 17.5275C9.42657 18.4382 8.21589 18.9399 6.92803 18.9399ZM21.3791 13.7951C21.3788 13.9122 21.3321 14.0244 21.2493 14.1071C21.1666 14.1899 21.0544 14.2366 20.9373 14.2369H17.8081C17.691 14.2366 17.5788 14.1899 17.4961 14.1071C17.4133 14.0244 17.3666 13.9122 17.3663 13.7951V12.2932C17.3666 12.1762 17.4133 12.064 17.4961 11.9812C17.5788 11.8984 17.691 11.8518 17.8081 11.8514H20.9373C21.0544 11.8518 21.1666 11.8984 21.2493 11.9812C21.3321 12.064 21.3788 12.1762 21.3791 12.2932V13.7951Z" fill="#FBB03B"/>
<path d="M10.103 11.32C9.70927 11.031 9.15572 11.1156 8.86653 11.5094L6.34131 14.9481L4.79532 13.8236C4.40041 13.5362 3.84714 13.6235 3.55981 14.0187C3.49149 14.1126 3.44234 14.2191 3.41517 14.332C3.38799 14.4449 3.38333 14.5621 3.40145 14.6768C3.41956 14.7916 3.4601 14.9016 3.52075 15.0007C3.58139 15.0997 3.66096 15.1859 3.7549 15.2542L5.82189 16.7575C6.01299 16.8969 6.24349 16.9719 6.48004 16.9716C6.82539 16.9716 7.16656 16.8132 7.38564 16.5147L10.2925 12.5566C10.5816 12.1629 10.4968 11.6092 10.103 11.32Z" fill="#FBB03B"/>
</g>
<defs>
<clipPath id="clip0_1454_24362">
<rect width="24" height="24" fill="white" transform="translate(0.046875)"/>
</clipPath>
</defs>
</svg>
