<svg width="216" height="222" viewBox="0 0 216 222" fill="none" xmlns="http://www.w3.org/2000/svg">
<g clip-path="url(#clip0_2595_20884)">
<path d="M177.805 179.641H195.211V174.107H177.805V179.641Z" fill="#EBEBEB"/>
<path d="M72.0155 90.4453H89.4219V84.9113H72.0155V90.4453Z" fill="#EBEBEB"/>
<path d="M187.514 186.62C190.406 186.571 197.817 186.447 200.609 186.417L204.921 186.398L204.693 186.625L204.673 181.091L204.921 181.338C202.03 181.328 194.658 181.304 191.866 181.264L187.514 181.21L187.633 181.091L187.514 186.62ZM187.514 186.62L187.396 181.086L187.391 180.972H187.509C189.683 180.943 194.039 180.893 196.213 180.878L204.916 180.844H205.163V181.091L205.144 186.625V186.853H204.921L200.53 186.833C197.752 186.793 190.376 186.67 187.514 186.62Z" fill="#EBEBEB"/>
<path d="M104.749 145.37C107.64 145.321 115.051 145.197 117.843 145.167L122.155 145.148L121.927 145.375L121.908 139.841L122.155 140.088C119.264 140.078 111.892 140.054 109.1 140.014L104.749 139.96L104.868 139.841L104.749 145.37ZM104.749 145.37L104.63 139.836L104.625 139.722H104.744C106.917 139.693 111.274 139.643 113.447 139.628L122.15 139.594H122.398V139.841L122.378 145.375V145.603H122.155L117.764 145.583C114.992 145.543 107.615 145.415 104.749 145.37Z" fill="#EBEBEB"/>
<path d="M114.452 152.347C117.343 152.297 124.754 152.174 127.546 152.144L131.858 152.124L131.631 152.352L131.611 146.818L131.858 147.065C128.967 147.055 121.596 147.03 118.803 146.991L114.452 146.936L114.571 146.818L114.452 152.347ZM114.452 152.347L114.333 146.813L114.328 146.699H114.447C116.62 146.669 120.977 146.62 123.15 146.605L131.853 146.57H132.101V146.818L132.081 152.352V152.579H131.858L127.467 152.559C124.695 152.52 117.318 152.391 114.452 152.347Z" fill="#EBEBEB"/>
<path d="M124.125 145.367H141.531V139.833H124.125V145.367Z" fill="#EBEBEB"/>
<path d="M0.117098 186.625H17.5234V181.091H0.117098V186.625Z" fill="#EBEBEB"/>
<path d="M9.82804 8.91406L27.2344 8.91406V3.38001L9.82804 3.38001V8.91406Z" fill="#EBEBEB"/>
<path d="M0.118815 15.8936L8.88139 15.7501L13.2132 15.6908L17.5252 15.671L17.2974 15.8985L17.2776 10.3595L17.5252 10.6068L8.82198 10.5722L4.4704 10.5326L0.118815 10.4782L0.237629 10.3595L0.118815 15.8936ZM0.118815 15.8936L0 10.3595V10.2458H0.118815L4.4704 10.1914L8.82198 10.1518L17.5252 10.1172H17.7727V10.3645L17.7529 15.8985V16.126H17.5301L13.1389 16.1062L8.76753 16.0469L0.118815 15.8936Z" fill="#EBEBEB"/>
<path d="M177.803 8.91701L186.566 8.77359L190.898 8.71424L195.21 8.69446L194.982 8.92195L194.962 3.3879L195.21 3.63518L186.507 3.60056L182.155 3.561L177.803 3.50659L177.922 3.3879L177.803 8.91701ZM177.803 8.91701L177.685 3.38296L177.68 3.26921H177.799L182.15 3.21481L186.502 3.17524L195.205 3.14062H195.452V3.3879L195.433 8.92195V9.14945H195.21L190.819 9.12966L186.447 9.07032L177.803 8.91701Z" fill="#EBEBEB"/>
<path d="M143.135 199.47H200.938L202.8 162.828H141.273L143.135 199.47Z" fill="#EBEBEB"/>
<path d="M145.336 167.109H197.283L196.496 179.379H146.009L145.336 167.109Z" stroke="#DBDBDB" stroke-miterlimit="10"/>
<path d="M146.922 182.977L147.471 194.01H195.804L196.492 182.977H146.922Z" stroke="#DBDBDB" stroke-miterlimit="10"/>
<path d="M176.91 174.402H166.513L166.172 171.781H177.246L176.91 174.402Z" stroke="#DBDBDB" stroke-miterlimit="10"/>
<path d="M176.91 189.804H166.513L166.172 187.188H177.246L176.91 189.804Z" stroke="#DBDBDB" stroke-miterlimit="10"/>
<path d="M151.146 199.469L150.587 203.46L149.458 211.481H147.25V199.469H151.146Z" fill="#EBEBEB"/>
<path d="M151.146 199.469L150.587 203.46H147.25V199.469H151.146Z" fill="#DBDBDB"/>
<path d="M192.922 199.469L193.486 203.46L194.615 211.481H196.823V199.469H192.922Z" fill="#EBEBEB"/>
<path d="M192.922 199.469L193.486 203.46H196.823V199.469H192.922Z" fill="#DBDBDB"/>
<path d="M205.853 0.25H123.148V71.2876H205.853V0.25Z" stroke="#EBEBEB" stroke-miterlimit="10"/>
<path d="M127.051 2.73545C127.051 3.2943 126.596 3.74434 126.041 3.74434C125.482 3.74434 125.031 3.28935 125.031 2.73545C125.031 2.18155 125.487 1.72656 126.041 1.72656C126.596 1.72656 127.051 2.17661 127.051 2.73545Z" fill="#A6A6A6"/>
<path d="M131.176 2.73545C131.176 3.2943 130.721 3.74434 130.166 3.74434C129.607 3.74434 129.156 3.28935 129.156 2.73545C129.156 2.18155 129.612 1.72656 130.166 1.72656C130.726 1.72656 131.176 2.17661 131.176 2.73545Z" fill="#EBEBEB"/>
<path d="M135.317 2.73545C135.317 3.2943 134.861 3.74434 134.307 3.74434C133.747 3.74434 133.297 3.28935 133.297 2.73545C133.297 2.18155 133.752 1.72656 134.307 1.72656C134.866 1.72656 135.317 2.17661 135.317 2.73545Z" fill="#FBB03B"/>
<path d="M123.148 5.20312H205.853" stroke="#EBEBEB" stroke-miterlimit="10"/>
<path d="M177.694 156.594C178.1 159.363 177.946 162.222 177.273 164.932C176.956 166.203 176.52 167.425 175.996 168.617C175.332 170.14 174.639 171.633 174.802 173.3C174.966 173.409 174.411 173.389 174.392 173.226C169.926 170.689 164.198 170.219 160.763 166.07C159.134 164.101 158.312 161.609 157.926 159.116C157.505 156.401 157.386 153.394 158.089 150.724C158.678 148.459 160.005 146.278 162.134 145.17C164.332 144.027 167.208 144.121 169.52 144.843C174.505 146.391 176.986 151.772 177.694 156.594Z" fill="#FBB03B"/>
<path d="M179.983 189.616C179.374 187.588 178.765 185.555 178.141 183.532C176.913 179.566 175.641 175.62 174.23 171.713C173.384 169.373 172.492 167.059 171.557 164.764C171.715 163.325 171.78 161.886 172.091 160.452C172.463 158.721 173.007 157.054 173.512 155.358C173.542 155.254 173.374 155.2 173.334 155.298C172.329 157.628 171.022 160.615 170.992 163.375C169.903 160.778 168.735 158.221 167.482 155.699C167.413 153.553 167.334 151.471 167.681 149.309C167.695 149.211 167.547 149.181 167.532 149.28C167.195 151.095 166.963 153.043 167.096 154.923C166.136 153.028 165.126 151.159 164.052 149.319C163.953 149.151 163.725 149.324 163.809 149.487C165.487 152.717 167.042 156.011 168.502 159.349C166.478 157.559 164.032 156.199 161.502 155.298C161.393 155.259 161.309 155.417 161.418 155.467C164.294 156.668 166.71 158.365 168.992 160.476C170.042 162.92 171.042 165.387 171.992 167.87C169.2 165.135 165.374 163.335 161.675 162.371C161.552 162.336 161.517 162.529 161.636 162.568C165.918 163.854 169.24 166.278 172.497 169.19C172.874 170.194 173.245 171.203 173.611 172.207C174.993 176.03 176.3 179.878 177.552 183.745C178.151 185.6 178.745 187.454 179.324 189.314C179.948 191.317 180.438 193.429 181.25 195.357C181.329 195.54 181.661 195.501 181.616 195.278C181.24 193.369 180.542 191.485 179.983 189.616Z" fill="#263238"/>
<path d="M172.578 152.69C171.776 153.916 171.246 155.261 170.969 156.696C170.964 156.73 171.019 156.755 171.033 156.715C171.533 155.365 172.118 154.065 172.776 152.784C172.84 152.655 172.652 152.571 172.578 152.69Z" fill="#263238"/>
<path d="M164.613 161.983C163.459 161.326 161.924 160.806 160.603 160.633C160.568 160.628 160.543 160.683 160.583 160.697C161.226 160.964 161.905 161.152 162.558 161.4C163.212 161.652 163.85 161.959 164.514 162.186C164.647 162.235 164.741 162.057 164.613 161.983Z" fill="#263238"/>
<path d="M162.361 150.802C161.955 150.535 161.525 150.189 161.074 150.006C161.005 149.976 160.941 150.065 161 150.12C161.356 150.451 161.856 150.693 162.272 150.941C162.351 150.995 162.441 150.857 162.361 150.802Z" fill="#263238"/>
<path d="M192.742 171.746C189.524 172.701 186.291 173.581 183.078 174.526C182.801 174.61 177.36 164.204 179.325 158.838C181.142 153.878 185.301 150.164 190.256 148.478C192.553 147.696 195.375 147.043 197.801 147.577C199.96 148.052 201.479 149.818 202.182 151.845C203.138 154.6 202.821 157.884 202.301 160.698C201.821 163.304 200.866 165.876 199.138 167.923C197.425 169.946 195.247 171.004 192.742 171.746Z" fill="#FBB03B"/>
<path d="M197.402 161.855C195.352 162.889 193.278 163.635 191.095 164.333C189.728 164.773 188.194 165.168 186.887 165.856C188.243 162.829 189.733 159.872 191.317 156.934C193.397 156.336 195.58 155.396 197.149 153.927C197.233 153.848 197.125 153.725 197.03 153.794C195.318 155.005 193.426 155.732 191.53 156.548C191.961 155.757 192.387 154.971 192.827 154.184C192.951 153.967 192.649 153.749 192.501 153.962C190.817 156.39 189.298 158.967 187.931 161.627C187.59 159.278 187.471 156.993 187.6 154.605C187.605 154.545 187.515 154.541 187.506 154.6C187.109 157.127 187.124 159.798 187.585 162.32C186.456 164.57 185.431 166.875 184.505 169.204C184.139 167.804 183.664 166.425 183.342 165.01C182.887 162.978 182.669 160.905 182.882 158.823C182.887 158.764 182.797 158.759 182.788 158.818C182.164 162.508 182.733 166.667 184.139 170.173C183.599 171.578 183.09 172.987 182.619 174.397C180.218 181.627 178.738 189.08 178.352 196.686C178.342 196.864 178.604 196.879 178.624 196.706C179.5 189.243 181.04 181.81 183.416 174.679C184.347 171.88 185.421 169.16 186.6 166.489C188.501 165.93 190.392 165.168 192.258 164.521C194.08 163.893 195.946 163.161 197.471 161.969C197.535 161.914 197.471 161.82 197.402 161.855Z" fill="#263238"/>
<path d="M200.401 158.831C198.435 159.528 196.569 160.508 194.604 161.215C194.51 161.249 194.564 161.393 194.658 161.373C196.737 160.943 198.802 160.3 200.475 158.94C200.539 158.895 200.47 158.811 200.401 158.831Z" fill="#263238"/>
<path d="M184.345 154.589C184.369 154.485 184.216 154.426 184.186 154.535C183.647 156.345 183.275 158.268 183.8 160.118C183.82 160.192 183.934 160.192 183.939 160.108C184.033 158.244 183.929 156.429 184.345 154.589Z" fill="#263238"/>
<path d="M192.474 150.405C191.815 151.246 191.578 152.438 191.622 153.486C191.627 153.556 191.736 153.595 191.756 153.516C191.994 152.478 192.395 151.538 192.716 150.529C192.756 150.381 192.568 150.287 192.474 150.405Z" fill="#263238"/>
<path d="M154.487 176.333C155.428 179.32 157.67 183.455 161.22 183.489C163.522 183.509 165.839 183.237 168.141 183.207C170.611 183.168 173.086 183.173 175.547 183.321C175.75 183.331 175.25 175.937 169.319 172.332C167.656 171.323 165.626 171.002 163.74 170.596C161.581 170.126 159.358 169.81 157.146 169.909C155.784 169.963 154.65 170.25 154.165 171.645C153.655 173.104 154.037 174.914 154.487 176.333Z" fill="#FBB03B"/>
<path d="M157.044 172.593C158.484 172.964 159.94 173.389 161.385 173.849C160.999 173.449 160.623 173.043 160.187 172.682C159.564 172.168 158.88 171.752 158.217 171.302C158.163 171.263 158.192 171.159 158.267 171.183C159.583 171.698 160.95 172.781 161.767 173.963C163.569 174.546 165.356 175.189 167.074 175.892C168.292 176.391 169.42 176.99 170.475 177.682C170.099 176.95 169.752 176.198 169.247 175.545C168.46 174.527 167.396 173.958 166.361 173.236C166.262 173.167 166.346 173.028 166.455 173.078C168.782 174.111 170.198 175.788 171.084 178.092C172.302 178.958 173.415 179.972 174.45 181.144C178.376 185.6 181.47 191.524 181.48 197.573C181.48 197.716 181.247 197.756 181.223 197.607C180.109 191.599 177.732 186.203 173.737 181.539C173.455 181.213 173.168 180.901 172.876 180.6C171.797 180.486 170.727 180.343 169.633 180.357C168.371 180.377 167.118 180.545 165.861 180.644C163.791 180.812 161.499 180.837 159.628 179.794C159.544 179.749 159.603 179.606 159.692 179.64C163.856 181.154 168.227 179.235 172.401 180.135C170.618 178.429 168.594 177.143 166.242 176.169C166.113 176.114 165.985 176.065 165.861 176.015C163.187 176.337 160.366 177.034 157.762 176.164C157.682 176.139 157.717 176.02 157.796 176.04C160.311 176.668 162.727 175.877 165.207 175.753C162.504 174.7 159.752 173.864 157.039 172.82C156.801 172.736 156.796 172.529 157.044 172.593Z" fill="#263238"/>
<path d="M155.862 175.22C157.169 175.432 158.442 175.442 159.754 175.516C159.783 175.516 159.793 175.566 159.759 175.571C158.481 175.857 157.08 175.679 155.833 175.318C155.768 175.299 155.798 175.21 155.862 175.22Z" fill="#263238"/>
<path d="M164.652 172.655C165.36 172.902 166.024 173.5 166.578 173.995C166.647 174.054 166.553 174.178 166.479 174.124C166.152 173.886 165.816 173.664 165.479 173.446C165.172 173.248 164.826 173.09 164.543 172.853C164.454 172.773 164.548 172.615 164.652 172.655Z" fill="#263238"/>
<path d="M185.602 182.286C185.558 182.385 185.701 182.479 185.756 182.375C185.761 182.375 185.761 182.375 185.761 182.37C185.78 182.4 185.81 182.425 185.855 182.43C188.251 182.949 190.662 183.473 193.102 183.691C195.063 183.864 197.325 183.973 199.043 182.835C201.37 181.292 202.9 177.172 201.642 174.551C200.152 171.441 195.667 173.132 193.419 174.235C189.959 175.926 187.176 178.78 185.602 182.286Z" fill="#FBB03B"/>
<path d="M183.867 183.725C185.189 182.434 186.65 181.361 188.194 180.431C189.254 178.631 190.882 177.138 192.585 175.961C192.67 175.901 192.744 176.035 192.665 176.094C191.199 177.222 190.056 178.542 188.966 179.981C190.699 179.017 192.531 178.221 194.397 177.514C195.046 176.322 196.105 175.209 197.313 174.596C197.338 174.586 197.368 174.615 197.343 174.635C196.288 175.461 195.447 176.312 194.709 177.395C195.813 176.984 196.927 176.599 198.041 176.233C198.14 176.198 198.18 176.351 198.085 176.391C196.105 177.167 194.076 177.978 192.11 178.923C194.59 179.254 196.823 179.334 199.343 178.903C199.407 178.893 199.437 178.987 199.373 179.007C196.937 179.699 194.15 179.828 191.694 179.121C190.442 179.734 189.219 180.407 188.056 181.158C189.031 181.03 190.011 181.203 190.996 181.401C192.719 181.742 194.402 182.044 196.17 181.984C196.234 181.984 196.254 182.088 196.184 182.103C193.184 182.617 190.348 181.257 187.372 181.608C186.273 182.365 185.229 183.201 184.273 184.136C182.407 185.965 180.907 188.156 179.758 190.501C178.506 193.047 177.828 195.743 176.818 198.374C176.773 198.488 176.615 198.443 176.635 198.324C177.501 193.137 180.085 187.419 183.867 183.725Z" fill="#263238"/>
<path d="M192.91 176.61C193.084 176.254 193.391 175.947 193.678 175.68C193.93 175.443 194.237 175.141 194.564 175.017C194.594 175.007 194.609 175.047 194.594 175.067C194.346 175.344 194.005 175.551 193.742 175.818C193.475 176.085 193.252 176.402 192.985 176.664C192.945 176.699 192.891 176.654 192.91 176.61Z" fill="#263238"/>
<path d="M197.864 178.221C198.31 178.108 198.78 178.117 199.231 178.023C199.686 177.93 200.112 177.766 200.558 177.628C200.617 177.608 200.652 177.697 200.597 177.727C199.869 178.162 198.716 178.528 197.864 178.36C197.795 178.35 197.795 178.241 197.864 178.221Z" fill="#263238"/>
<path d="M171.508 191.93L171.899 196.396L173.236 211.479H185.063L186.731 196.396L187.226 191.93H171.508Z" fill="#37474F"/>
<path d="M171.508 191.93L171.899 196.396H186.731L187.226 191.93H171.508Z" fill="#263238"/>
<path d="M170.331 194.336H188.391V190.711H170.331V194.336Z" fill="#37474F"/>
<path d="M2.24219 211.489L27.3071 211.371L52.377 211.326L102.517 211.242L152.657 211.326L177.726 211.366L202.796 211.489L177.726 211.608L152.657 211.653L102.517 211.737L52.377 211.653L27.3071 211.608L2.24219 211.489Z" fill="#263238"/>
<path d="M193.675 9.16406H11.3594V124.385H193.675V9.16406Z" fill="white"/>
<path d="M193.674 124.386C193.644 124.416 11.3185 124.441 11.2839 124.46C11.2443 124.436 11.2641 9.20962 11.2344 9.16511V9.04148H11.3581C11.3779 9.02169 193.699 9.13049 193.724 9.11566C193.763 9.14533 193.644 124.352 193.674 124.386ZM193.674 124.386C193.684 124.411 193.56 8.95245 193.674 9.21457L11.3581 9.28875L11.4819 9.16511C11.4671 9.12555 11.5364 124.717 11.3581 124.312L193.674 124.386Z" fill="#263238"/>
<path d="M193.675 9.16406H11.3594V13.6002H193.675V9.16406Z" fill="#263238"/>
<path d="M15.6359 11.3795C15.6359 11.8741 15.2349 12.2747 14.7398 12.2747C14.2447 12.2747 13.8438 11.8741 13.8438 11.3795C13.8438 10.885 14.2447 10.4844 14.7398 10.4844C15.2349 10.4893 15.6359 10.8899 15.6359 11.3795Z" fill="#FBB03B"/>
<path d="M19.2921 11.3795C19.2921 11.8741 18.8911 12.2747 18.3961 12.2747C17.901 12.2747 17.5 11.8741 17.5 11.3795C17.5 10.885 17.901 10.4844 18.3961 10.4844C18.8911 10.4893 19.2921 10.8899 19.2921 11.3795Z" fill="white"/>
<path d="M22.9406 11.3795C22.9406 11.8741 22.5396 12.2747 22.0445 12.2747C21.5494 12.2747 21.1484 11.8741 21.1484 11.3795C21.1484 10.885 21.5494 10.4844 22.0445 10.4844C22.5396 10.4893 22.9406 10.8899 22.9406 11.3795Z" fill="#455A64"/>
<path d="M66.553 69.3594H47.7109V94.0425H66.553V69.3594Z" fill="#EBEBEB"/>
<path d="M89.2405 69.3594H70.3984V94.0425H89.2405V69.3594Z" fill="#EBEBEB"/>
<path d="M111.936 69.3594H93.0938V94.0425H111.936V69.3594Z" fill="#EBEBEB"/>
<path d="M134.631 69.3594H115.789V94.0425H134.631V69.3594Z" fill="#EBEBEB"/>
<path d="M157.319 69.3594H138.477V94.0425H157.319V69.3594Z" fill="#EBEBEB"/>
<path d="M59.8523 80.4335C60.7582 81.3187 61.1988 82.4958 61.1988 83.6778C61.1988 84.84 60.7384 86.017 59.8523 86.9023C58.9661 87.8073 57.7879 88.2474 56.6245 88.2474C56.5898 88.2474 56.5898 88.2474 56.5898 88.2474C55.4462 88.2474 54.2482 87.8073 53.3818 86.9023C52.9561 86.5165 52.9561 85.8538 53.3818 85.4285C53.768 85.0229 54.4511 85.0229 54.8571 85.4285C55.3373 85.928 55.966 86.1654 56.6294 86.1654C57.2581 86.1654 57.9017 85.928 58.3819 85.4285C58.8621 84.9488 59.1196 84.3058 59.1196 83.6778C59.1196 83.0151 58.8819 82.387 58.3819 81.9073C57.9017 81.4078 57.273 81.1902 56.6294 81.1902C56.0007 81.1902 55.3373 81.4127 54.8571 81.9073C54.4511 82.3128 53.7878 82.3128 53.3818 81.9073C53.3076 81.8331 53.2531 81.7391 53.1788 81.6699C53.1788 81.6353 53.1788 81.6155 53.159 81.6155C53.159 81.5809 53.1392 81.5413 53.1244 81.5215C53.1244 81.4671 53.1046 81.4275 53.1046 81.3929C53.1046 81.3731 53.0848 81.3731 53.0848 81.3583C53.065 81.2495 53.065 81.1358 53.0848 81.0467L53.6392 76.2743C53.6937 75.9627 53.862 75.7056 54.0997 75.5374C54.1343 75.5176 54.1541 75.5176 54.1739 75.5028C54.1937 75.483 54.2086 75.483 54.2284 75.4682C54.3769 75.394 54.5254 75.3594 54.7086 75.3594H60.1493C60.7384 75.3594 61.1988 75.8193 61.1988 76.4078C61.1988 76.9617 60.7384 77.4414 60.1493 77.4414H55.6096L55.3868 79.2664C55.7928 79.1575 56.2185 79.0982 56.6245 79.0982C57.7829 79.0883 58.9661 79.5334 59.8523 80.4335Z" fill="#C7C7C7"/>
<path d="M82.5377 80.4093C83.4436 81.2945 83.8842 82.4716 83.8842 83.6338C83.8842 84.796 83.4436 85.973 82.5377 86.878C81.6515 87.7633 80.4733 88.2232 79.2901 88.2232C78.1267 88.2232 76.9484 87.7633 76.0623 86.878C75.6563 86.4725 75.6563 85.8098 76.0623 85.4043C76.4682 84.9987 77.1316 84.9987 77.5376 85.4043C78.0178 85.884 78.6465 86.1214 79.2901 86.1214C79.9337 86.1214 80.5624 85.884 81.0624 85.4043C81.5624 84.9048 81.8 84.2816 81.8 83.6338C81.8 82.9908 81.5624 82.3628 81.0624 81.883C80.5822 81.3835 79.9535 81.1659 79.3099 81.1461C79.0128 81.1659 78.7406 81.0373 78.5524 80.8148C78.5326 80.8148 78.5326 80.8148 78.5326 80.795C78.1069 80.3895 78.1069 79.7466 78.498 79.3212L80.3792 77.4024H77.389C76.8197 77.4024 76.3544 76.9424 76.3544 76.3539C76.3544 75.7852 76.8148 75.3203 77.389 75.3203H82.8298C83.4189 75.3203 83.8793 75.7802 83.8793 76.3539C83.8793 76.5369 83.8248 76.7051 83.7506 76.8534C83.6961 76.9474 83.6417 77.0364 83.5674 77.1106L81.2456 79.5042C81.7258 79.7317 82.1713 80.0235 82.5377 80.4093Z" fill="#C7C7C7"/>
<path d="M105.233 80.4093C106.134 81.2945 106.58 82.4716 106.58 83.6338C106.58 84.796 106.139 85.973 105.233 86.878C104.347 87.7633 103.169 88.2232 101.985 88.2232C100.822 88.2232 99.6437 87.7633 98.7576 86.878C98.3516 86.4725 98.3516 85.8098 98.7576 85.4043C99.1635 84.9987 99.8269 84.9987 100.233 85.4043C100.713 85.884 101.342 86.1214 101.985 86.1214C102.629 86.1214 103.258 85.884 103.758 85.4043C104.258 84.9048 104.495 84.2816 104.495 83.6338C104.495 82.9908 104.258 82.3628 103.758 81.883C103.277 81.3835 102.649 81.1659 102.005 81.1461C101.708 81.1659 101.436 81.0373 101.248 80.8148C101.228 80.8148 101.228 80.8148 101.228 80.795C100.802 80.3895 100.802 79.7466 101.193 79.3212L103.075 77.4024H100.084C99.515 77.4024 99.0497 76.9424 99.0497 76.3539C99.0497 75.7852 99.5101 75.3203 100.084 75.3203H105.525C106.114 75.3203 106.575 75.7802 106.575 76.3539C106.575 76.5369 106.52 76.7051 106.446 76.8534C106.391 76.9474 106.337 77.0364 106.263 77.1106L103.941 79.5042C104.421 79.7317 104.862 80.0235 105.233 80.4093Z" fill="#C7C7C7"/>
<path d="M129.622 83.855C129.622 86.2684 127.646 88.2417 125.231 88.2417C122.795 88.2417 120.805 86.2684 120.805 83.855C120.805 82.3268 121.582 80.9817 122.78 80.1904C122.394 79.6909 122.171 79.048 122.171 78.3655C122.171 76.7087 123.537 75.3438 125.231 75.3438C126.889 75.3438 128.255 76.7087 128.255 78.3655C128.255 79.048 128.033 79.6909 127.646 80.1904C128.825 80.9817 129.622 82.3268 129.622 83.855ZM127.612 83.855C127.612 82.5444 126.542 81.4614 125.231 81.4614C123.904 81.4614 122.834 82.5494 122.815 83.855C122.834 85.1656 123.904 86.2338 125.231 86.2338C126.537 86.2338 127.612 85.1656 127.612 83.855ZM124.181 78.3655C124.181 78.9342 124.641 79.4139 125.231 79.4139C125.785 79.4139 126.245 78.9342 126.245 78.3655C126.245 77.8116 125.785 77.3516 125.231 77.3516C124.641 77.3516 124.181 77.8116 124.181 78.3655Z" fill="#C7C7C7"/>
<path d="M115.91 102.68H89.1172V111.067H115.91V102.68Z" fill="#FBB03B"/>
<path d="M94.828 107.521C94.9023 107.427 95.0409 107.417 95.13 107.491C95.3132 107.639 95.63 107.813 95.9221 107.813C96.13 107.813 96.3182 107.748 96.4419 107.659C96.5657 107.565 96.6201 107.466 96.6201 107.363C96.6201 107.308 96.6053 107.274 96.5805 107.229C96.5558 107.189 96.5162 107.145 96.4568 107.105C96.338 107.026 96.135 106.957 95.8875 106.912H95.8776C95.6845 106.878 95.5013 106.823 95.3429 106.749C95.1845 106.675 95.0508 106.571 94.9567 106.428C94.8924 106.329 94.8627 106.21 94.8627 106.087C94.8627 105.839 95.0013 105.622 95.1944 105.483C95.3874 105.345 95.6449 105.266 95.9122 105.266C96.3083 105.266 96.6053 105.458 96.8182 105.597C96.9122 105.661 96.9419 105.795 96.8776 105.894C96.8132 105.993 96.6845 106.022 96.5805 105.958C96.3677 105.815 96.1647 105.691 95.9122 105.691C95.7241 105.691 95.5607 105.75 95.4469 105.829C95.333 105.913 95.2884 106.003 95.2884 106.092C95.2884 106.141 95.2983 106.176 95.3181 106.205C95.3379 106.24 95.3775 106.275 95.432 106.314C95.5409 106.388 95.729 106.457 95.9518 106.497H95.9617C96.1746 106.537 96.3677 106.591 96.536 106.67C96.7043 106.754 96.8578 106.863 96.9518 107.016C97.0112 107.115 97.0509 107.239 97.0509 107.367C97.0509 107.635 96.9023 107.862 96.6944 108.01C96.4914 108.159 96.2191 108.248 95.9271 108.248C95.4766 108.243 95.1003 108.02 94.8676 107.832C94.7686 107.748 94.7538 107.615 94.828 107.521Z" fill="white"/>
<path d="M98.8855 108.242C98.2172 108.242 97.6875 107.703 97.6875 107.045V105.571C97.6875 105.443 97.7865 105.344 97.9152 105.344C98.039 105.344 98.1479 105.443 98.1479 105.571V107.045C98.1479 107.451 98.4796 107.782 98.8855 107.782C99.2964 107.782 99.6232 107.451 99.6232 107.045V105.571C99.6232 105.443 99.7272 105.344 99.8559 105.344C99.9846 105.344 100.084 105.443 100.084 105.571V107.045C100.084 107.703 99.5489 108.242 98.8855 108.242Z" fill="white"/>
<path d="M101.055 108.014V105.571C101.055 105.443 101.159 105.344 101.282 105.344C101.287 105.344 101.287 105.344 101.292 105.344C101.292 105.344 101.292 105.344 101.297 105.344H101.872C102.307 105.344 102.659 105.695 102.659 106.13C102.659 106.308 102.599 106.471 102.5 106.605C102.748 106.763 102.921 107.04 102.921 107.357C102.921 107.851 102.525 108.247 102.035 108.247H101.302C101.297 108.247 101.297 108.242 101.297 108.242C101.287 108.242 101.287 108.247 101.287 108.247C101.159 108.242 101.055 108.138 101.055 108.014ZM101.515 106.466H101.872C102.055 106.466 102.198 106.313 102.198 106.13C102.198 105.947 102.055 105.804 101.872 105.804H101.515V106.466ZM101.515 107.782H102.035C102.273 107.777 102.461 107.589 102.461 107.352C102.461 107.114 102.268 106.931 102.035 106.926H101.515V107.782Z" fill="white"/>
<path d="M106.013 105.571V108.014C106.013 108.138 105.904 108.242 105.78 108.242C105.651 108.242 105.552 108.138 105.552 108.014V106.269L104.953 107.099C104.909 107.164 104.84 107.193 104.765 107.193H104.76H104.755C104.681 107.193 104.612 107.159 104.562 107.099L103.968 106.269V108.014C103.968 108.138 103.864 108.242 103.736 108.242C103.612 108.242 103.508 108.138 103.508 108.014V105.571C103.508 105.448 103.612 105.344 103.736 105.344C103.74 105.344 103.74 105.344 103.75 105.344C103.815 105.344 103.889 105.378 103.934 105.438L104.76 106.58L105.587 105.438C105.632 105.373 105.701 105.344 105.775 105.344C105.775 105.344 105.775 105.344 105.78 105.344C105.904 105.349 106.013 105.448 106.013 105.571Z" fill="white"/>
<path d="M107.055 105.571C107.055 105.443 107.154 105.344 107.282 105.344C107.406 105.344 107.515 105.443 107.515 105.571V108.014C107.515 108.143 107.406 108.242 107.282 108.242C107.154 108.242 107.055 108.143 107.055 108.014V105.571Z" fill="white"/>
<path d="M110.058 105.804H109.399V108.014C109.399 108.143 109.3 108.242 109.171 108.242C109.048 108.242 108.944 108.143 108.944 108.014V105.804H108.29C108.162 105.804 108.062 105.695 108.062 105.571C108.062 105.443 108.162 105.344 108.29 105.344H110.063C110.186 105.344 110.29 105.443 110.29 105.571C110.285 105.695 110.181 105.804 110.058 105.804Z" fill="white"/>
<path d="M106.012 29.3675V33.131H104.947V29.3675C104.947 27.9333 103.858 26.7711 102.521 26.7711C101.185 26.7711 100.096 27.9333 100.096 29.3675V33.131H99.0312V29.3675C99.0312 27.3151 100.596 25.6484 102.526 25.6484C104.457 25.6484 106.012 27.3151 106.012 29.3675Z" fill="#EBEBEB"/>
<path d="M99.0234 30.3438L100.088 30.3883V33.1281H99.0234V30.3438Z" fill="#C7C7C7"/>
<path d="M106.01 30.6255V33.1279H104.945V30.5859L106.01 30.6255Z" fill="#C7C7C7"/>
<path d="M107.374 31.7422H97.6562V39.7985H107.374V31.7422Z" fill="#FBB03B"/>
<path d="M102.923 35.7125L103.329 37.6413H101.602L102.008 35.7125C101.765 35.5592 101.602 35.2921 101.602 34.9855C101.602 34.5058 101.988 34.125 102.463 34.125C102.938 34.125 103.324 34.5058 103.324 34.9855C103.329 35.2921 103.166 35.5592 102.923 35.7125Z" fill="#263238"/>
<path d="M49.8516 60.0619C49.8516 60.0026 49.9011 59.9531 49.9605 59.9531H49.9753H50.8565C51.3565 59.9531 51.7575 60.3587 51.7575 60.8582C51.7575 61.3577 51.3565 61.7582 50.8565 61.7582L50.0743 61.7681V63.0095C50.0743 63.0688 50.0248 63.1183 49.9605 63.1183C49.9011 63.1183 49.8516 63.0688 49.8516 63.0095V60.0619ZM50.8565 61.5456C51.2328 61.5406 51.5397 61.234 51.5397 60.8582C51.5397 60.4823 51.2328 60.1757 50.8565 60.1757H50.0743V61.5456H50.8565Z" fill="#263238"/>
<path d="M52.4688 60.0619C52.4688 60.0026 52.5183 59.9531 52.5777 59.9531C52.642 59.9531 52.6915 60.0026 52.6915 60.0619V63.0095C52.6915 63.0688 52.642 63.1183 52.5777 63.1183C52.5183 63.1183 52.4688 63.0688 52.4688 63.0095V60.0619Z" fill="#263238"/>
<path d="M53.6094 62.0112C53.6094 61.3979 54.0896 60.8984 54.6886 60.8984C55.2579 60.8984 55.7134 61.3485 55.7579 61.9271V61.9321V61.9469C55.7579 62.0062 55.7084 62.0458 55.649 62.0458H53.8322C53.8569 62.5305 54.2331 62.8964 54.6936 62.8964C54.9856 62.8964 55.2579 62.7431 55.4064 62.4958C55.4361 62.4414 55.5055 62.4316 55.55 62.4612C55.5995 62.4958 55.6193 62.5601 55.5847 62.6145C55.3965 62.9162 55.0649 63.114 54.6886 63.114C54.0896 63.114 53.6094 62.6145 53.6094 62.0112ZM53.8421 61.8331H55.5203C55.4461 61.4177 55.0946 61.116 54.6886 61.116C54.2728 61.116 53.9213 61.4128 53.8421 61.8331Z" fill="#263238"/>
<path d="M58.3803 61.0072V63.0052C58.3803 63.0646 58.3308 63.114 58.2714 63.114C58.212 63.114 58.1625 63.0646 58.1625 63.0052V62.6739C57.9744 62.936 57.6674 63.114 57.3308 63.114C56.7466 63.114 56.2812 62.6145 56.2812 62.0062C56.2812 61.4029 56.7466 60.8984 57.3308 60.8984C57.6724 60.8984 57.9744 61.0715 58.1625 61.3336V61.0072C58.1625 60.9429 58.212 60.8984 58.2714 60.8984C58.3308 60.8984 58.3803 60.9429 58.3803 61.0072ZM58.1674 62.0062C58.1674 61.5067 57.7912 61.1111 57.3357 61.1111C56.8852 61.1111 56.504 61.5067 56.504 62.0062C56.504 62.5057 56.8852 62.8964 57.3357 62.8964C57.7912 62.8964 58.1674 62.5008 58.1674 62.0062Z" fill="#263238"/>
<path d="M59.1712 62.6541C59.2058 62.6096 59.2751 62.5997 59.3246 62.6393C59.4781 62.753 59.7207 62.8964 60.0029 62.8964C60.1762 62.8964 60.3247 62.842 60.4237 62.7629C60.5326 62.6887 60.592 62.5898 60.592 62.4909C60.5871 62.387 60.5475 62.3129 60.4336 62.2189C60.3395 62.1447 60.1811 62.0903 59.9633 62.0557L59.9534 62.0507C59.7554 62.0161 59.5771 61.9716 59.4534 61.8777C59.3147 61.7985 59.2157 61.6502 59.2157 61.482C59.2157 61.304 59.3147 61.1507 59.4534 61.0468C59.587 60.9578 59.7702 60.8984 59.9979 60.8984C60.2851 60.8984 60.488 61.032 60.6564 61.1358C60.7059 61.1704 60.7207 61.2397 60.6861 61.2891C60.6564 61.3386 60.5871 61.3534 60.5375 61.3188C60.3742 61.21 60.2108 61.0963 59.993 61.0963C59.8098 61.0963 59.6662 61.1457 59.5722 61.2248C59.4831 61.299 59.4336 61.388 59.4336 61.4771C59.4336 61.5661 59.4732 61.6304 59.5623 61.6996C59.6613 61.7689 59.8098 61.8233 60.0128 61.8529H60.0227C60.2356 61.8826 60.4088 61.9469 60.5623 62.0359C60.7059 62.1299 60.8098 62.303 60.8098 62.486C60.8098 62.6689 60.7059 62.8222 60.5574 62.9311C60.4039 63.0448 60.2207 63.1091 60.0029 63.1091C59.6464 63.1041 59.3643 62.936 59.186 62.7926C59.1415 62.758 59.1365 62.6986 59.1712 62.6541Z" fill="#263238"/>
<path d="M61.3906 62.0112C61.3906 61.3979 61.8708 60.8984 62.4699 60.8984C63.0392 60.8984 63.4946 61.3485 63.5392 61.9271V61.9321V61.9469C63.5392 62.0062 63.4897 62.0458 63.4303 62.0458H61.6134C61.6382 62.5305 62.0144 62.8964 62.4748 62.8964C62.7669 62.8964 63.0392 62.7431 63.1877 62.4958C63.2174 62.4414 63.2867 62.4316 63.3313 62.4612C63.3808 62.4958 63.4006 62.5601 63.3659 62.6145C63.1778 62.9162 62.8461 63.114 62.4699 63.114C61.8708 63.114 61.3906 62.6145 61.3906 62.0112ZM61.6233 61.8331H63.3016C63.2273 61.4177 62.8758 61.116 62.4699 61.116C62.054 61.116 61.7025 61.4128 61.6233 61.8331Z" fill="#263238"/>
<path d="M65.5078 62.0112C65.5078 61.3979 65.988 60.8984 66.587 60.8984C67.1564 60.8984 67.6118 61.3485 67.6564 61.9271V61.9321V61.9469C67.6564 62.0062 67.6069 62.0458 67.5475 62.0458H65.7306C65.7553 62.5305 66.1316 62.8964 66.592 62.8964C66.8841 62.8964 67.1564 62.7431 67.3049 62.4958C67.3346 62.4414 67.4039 62.4316 67.4485 62.4612C67.498 62.4958 67.5178 62.5601 67.4831 62.6145C67.295 62.9162 66.9633 63.114 66.587 63.114C65.988 63.114 65.5078 62.6145 65.5078 62.0112ZM65.7405 61.8331H67.4187C67.3445 61.4177 66.993 61.116 66.587 61.116C66.1712 61.116 65.8197 61.4128 65.7405 61.8331Z" fill="#263238"/>
<path d="M70.0061 61.8063C70.0061 61.4305 69.7041 61.1239 69.3229 61.1239C68.9466 61.1239 68.6446 61.4305 68.6347 61.8063V63.0081V63.0279C68.6298 63.0477 68.6249 63.0625 68.61 63.0773C68.5902 63.1021 68.5605 63.1169 68.5308 63.1169H68.506C68.4763 63.107 68.4466 63.0872 68.4318 63.0576C68.4268 63.0526 68.4268 63.0477 68.4268 63.0427C68.4268 63.0378 68.4219 63.0328 68.4219 63.0328V63.0081V61.8063V61.7717V61.0151C68.4219 60.9557 68.4664 60.9062 68.5308 60.9062C68.5902 60.9062 68.6347 60.9557 68.6347 61.0151V61.2277C68.7981 61.0348 69.0456 60.9062 69.3229 60.9062C69.8229 60.9062 70.2239 61.3118 70.2239 61.8063V63.0081C70.2239 63.0724 70.1744 63.1169 70.115 63.1169C70.0556 63.1169 70.0061 63.0724 70.0061 63.0081V61.8063Z" fill="#263238"/>
<path d="M71.9631 61.0073C71.9631 61.0617 71.9086 61.1161 71.8541 61.1161H71.567V62.7284C71.567 62.8372 71.6759 62.8916 71.7304 62.8916C71.7848 62.8916 71.8442 62.9509 71.8442 63.0053C71.8442 63.0597 71.7848 63.1141 71.7304 63.1141C71.5076 63.1141 71.3393 62.9509 71.3393 62.7284V61.1161H71.062C70.9531 61.1161 70.9531 61.0617 70.9531 61.0073C70.9531 60.9529 70.9531 60.8985 71.062 60.8985H71.3393V60.0776C71.3393 60.0232 71.3937 59.9688 71.4482 59.9688C71.5076 59.9688 71.567 60.0232 71.567 60.0776V60.8985H71.8541C71.9086 60.8985 71.9631 60.9529 71.9631 61.0073Z" fill="#263238"/>
<path d="M72.6641 62.0112C72.6641 61.3979 73.1443 60.8984 73.7433 60.8984C74.3126 60.8984 74.7681 61.3485 74.8126 61.9271V61.9321V61.9469C74.8126 62.0062 74.7631 62.0458 74.7037 62.0458H72.8868C72.9116 62.5305 73.2878 62.8964 73.7482 62.8964C74.0403 62.8964 74.3126 62.7431 74.4611 62.4958C74.4908 62.4414 74.5602 62.4316 74.6047 62.4612C74.6542 62.4958 74.674 62.5601 74.6394 62.6145C74.4512 62.9162 74.1195 63.114 73.7433 63.114C73.1443 63.114 72.6641 62.6145 72.6641 62.0112ZM72.8967 61.8331H74.575C74.5007 61.4177 74.1492 61.116 73.7433 61.116C73.3274 61.116 72.976 61.4128 72.8967 61.8331Z" fill="#263238"/>
<path d="M75.4815 61.0151C75.4815 60.9508 75.531 60.9062 75.5954 60.9062C75.6498 60.9062 75.6993 60.9508 75.6993 61.0151V61.5047C75.7092 61.4849 75.7191 61.47 75.729 61.4503C75.8974 61.1881 76.1895 60.9062 76.6152 60.9062C76.6746 60.9062 76.7241 60.9508 76.7241 61.0151C76.7241 61.0744 76.6746 61.1239 76.6152 61.1239C76.3281 61.1239 76.1251 61.2871 75.9716 61.4849C75.8231 61.6827 75.734 61.9102 75.7043 61.9992C75.6944 62.019 75.6944 62.0239 75.6944 62.0338V63.0081C75.6944 63.0724 75.6449 63.1169 75.5904 63.1169C75.5261 63.1169 75.4766 63.0724 75.4766 63.0081V61.0151H75.4815Z" fill="#263238"/>
<path d="M79.6037 61.0073C79.6037 61.0617 79.5492 61.1161 79.4948 61.1161H79.2076V62.7284C79.2076 62.8372 79.3165 62.8916 79.371 62.8916C79.4255 62.8916 79.4849 62.9509 79.4849 63.0053C79.4849 63.0597 79.4255 63.1141 79.371 63.1141C79.1482 63.1141 78.9799 62.9509 78.9799 62.7284V61.1161H78.7027C78.5938 61.1161 78.5938 61.0617 78.5938 61.0073C78.5938 60.9529 78.5938 60.8985 78.7027 60.8985H78.9799V60.0776C78.9799 60.0232 79.0344 59.9688 79.0888 59.9688C79.1482 59.9688 79.2076 60.0232 79.2076 60.0776V60.8985H79.4948C79.5492 60.8985 79.6037 60.9529 79.6037 61.0073Z" fill="#263238"/>
<path d="M82.1777 61.771C82.1777 61.3803 81.8609 61.1182 81.4698 61.1182C81.0836 61.1182 80.7668 61.3803 80.7668 61.771V63.0074V63.0222C80.7668 63.0321 80.7618 63.0371 80.7618 63.042C80.7569 63.0519 80.7569 63.0568 80.7519 63.0618C80.7371 63.0865 80.7173 63.1063 80.6826 63.1162C80.6826 63.1162 80.6777 63.1211 80.6727 63.1211H80.6628H80.648C80.6183 63.1211 80.5836 63.1063 80.5638 63.0865C80.5539 63.0717 80.549 63.0618 80.544 63.0519C80.5391 63.0371 80.5391 63.0272 80.5391 63.0173V61.7809V61.7463V60.0697C80.5391 60.0104 80.5886 59.9609 80.648 59.9609C80.7123 59.9609 80.7618 60.0104 80.7618 60.0697V61.2369C80.9302 61.0391 81.1826 60.9105 81.4648 60.9105C81.9747 60.9105 82.3906 61.2715 82.3906 61.7809V63.0173C82.3906 63.0766 82.3411 63.1261 82.2767 63.1261C82.2173 63.1261 82.1678 63.0766 82.1678 63.0173V61.771H82.1777Z" fill="#263238"/>
<path d="M83.1641 62.0112C83.1641 61.3979 83.6443 60.8984 84.2433 60.8984C84.8126 60.8984 85.2681 61.3485 85.3126 61.9271V61.9321V61.9469C85.3126 62.0062 85.2631 62.0458 85.2037 62.0458H83.3868C83.4116 62.5305 83.7878 62.8964 84.2482 62.8964C84.5403 62.8964 84.8126 62.7431 84.9611 62.4958C84.9908 62.4414 85.0601 62.4316 85.1047 62.4612C85.1542 62.4958 85.174 62.5601 85.1394 62.6145C84.9512 62.9162 84.6195 63.114 84.2433 63.114C83.6393 63.114 83.1641 62.6145 83.1641 62.0112ZM83.3918 61.8331H85.0701C84.9958 61.4177 84.6443 61.116 84.2383 61.116C83.8225 61.116 83.476 61.4128 83.3918 61.8331Z" fill="#263238"/>
<path d="M88.8735 59.9062C89.72 59.9062 90.3834 60.6234 90.3884 61.5135C90.3834 62.3988 89.72 63.1208 88.8735 63.1208C88.017 63.1208 87.3487 62.4037 87.3438 61.5135C87.3487 60.6234 88.017 59.9062 88.8735 59.9062ZM88.8735 62.8934C89.5715 62.8934 90.1606 62.2851 90.1656 61.5086C90.1606 60.7272 89.5715 60.1288 88.8735 60.1288C88.1556 60.1288 87.5665 60.7272 87.5665 61.5086C87.5665 62.2851 88.1556 62.8934 88.8735 62.8934Z" fill="#263238"/>
<path d="M91.9003 60.1757H90.9449C90.8854 60.1757 90.8359 60.1262 90.8359 60.0619C90.8359 60.0026 90.8854 59.9531 90.9449 59.9531H93.0736C93.133 59.9531 93.1825 60.0026 93.1825 60.0619C93.1825 60.1262 93.133 60.1757 93.0736 60.1757H92.1181V63.0095C92.1181 63.0688 92.0686 63.1183 92.0092 63.1183C91.9498 63.1183 91.9003 63.0688 91.9003 63.0095V60.1757Z" fill="#263238"/>
<path d="M94.0078 60.0619C94.0078 60.0026 94.0573 59.9531 94.1167 59.9531H94.1316H95.0128C95.5128 59.9531 95.9138 60.3587 95.9138 60.8582C95.9138 61.3577 95.5128 61.7582 95.0128 61.7582L94.2306 61.7681V63.0095C94.2306 63.0688 94.1811 63.1183 94.1167 63.1183C94.0573 63.1183 94.0078 63.0688 94.0078 63.0095V60.0619ZM95.0128 61.5456C95.389 61.5406 95.696 61.234 95.696 60.8582C95.696 60.4823 95.389 60.1757 95.0128 60.1757H94.2306V61.5456H95.0128Z" fill="#263238"/>
<path d="M97.7969 62.0013C97.7969 61.388 98.3018 60.8984 98.9355 60.8984C99.1979 60.8984 99.4454 60.9875 99.6434 61.1408C99.688 61.1704 99.6979 61.2397 99.6583 61.2891C99.6237 61.3287 99.5593 61.3435 99.5098 61.3089C99.3514 61.1803 99.1533 61.1111 98.9405 61.1111C98.4256 61.1111 98.0197 61.5117 98.0197 62.0013C98.0197 62.5008 98.4256 62.8964 98.9405 62.8964C99.1533 62.8964 99.3514 62.8223 99.5098 62.7036C99.5593 62.6689 99.6237 62.6788 99.6583 62.7233C99.6979 62.7728 99.688 62.842 99.6336 62.8816C99.4504 63.025 99.1979 63.119 98.9355 63.119C98.3068 63.114 97.7969 62.6244 97.7969 62.0013Z" fill="#263238"/>
<path d="M101.425 60.8984C102.009 60.8984 102.474 61.4029 102.474 62.0062C102.474 62.6096 102.009 63.114 101.425 63.114C100.845 63.114 100.375 62.6096 100.375 62.0062C100.375 61.4029 100.845 60.8984 101.425 60.8984ZM101.425 62.8964C101.875 62.8964 102.256 62.5008 102.256 62.0062C102.256 61.5117 101.875 61.1111 101.425 61.1111C100.974 61.1111 100.593 61.5117 100.593 62.0062C100.588 62.4958 100.969 62.8964 101.425 62.8964Z" fill="#263238"/>
<path d="M105.074 62.688C104.881 62.9501 104.574 63.1183 104.223 63.1183C103.624 63.1183 103.148 62.6188 103.148 62.0154C103.148 61.4022 103.624 60.9027 104.223 60.9027C104.569 60.9027 104.881 61.0758 105.074 61.3379V60.0619C105.074 60.0026 105.124 59.9531 105.188 59.9531C105.248 59.9531 105.297 60.0026 105.297 60.0619V61.9709V62.0154V63.0095C105.297 63.0688 105.248 63.1183 105.188 63.1183C105.124 63.1183 105.074 63.0688 105.074 63.0095V62.688ZM105.074 62.05V61.9758C105.054 61.5011 104.678 61.1203 104.223 61.1203C103.757 61.1203 103.371 61.5159 103.371 62.0105C103.371 62.5001 103.757 62.8908 104.223 62.8908C104.683 62.8957 105.059 62.5199 105.074 62.05Z" fill="#263238"/>
<path d="M106.062 62.0112C106.062 61.3979 106.543 60.8984 107.142 60.8984C107.711 60.8984 108.167 61.3485 108.211 61.9271V61.9321V61.9469C108.211 62.0062 108.162 62.0458 108.102 62.0458H106.28C106.305 62.5305 106.681 62.8964 107.142 62.8964C107.434 62.8964 107.706 62.7431 107.855 62.4958C107.884 62.4414 107.954 62.4316 107.998 62.4612C108.048 62.4958 108.067 62.5601 108.033 62.6145C107.845 62.9162 107.513 63.114 107.137 63.114C106.543 63.114 106.062 62.6145 106.062 62.0112ZM106.295 61.8331H107.973C107.899 61.4177 107.548 61.116 107.142 61.116C106.726 61.116 106.374 61.4128 106.295 61.8331Z" fill="#263238"/>
<path d="M110.179 62.6541C110.214 62.6096 110.283 62.5997 110.332 62.6393C110.486 62.753 110.729 62.8964 111.011 62.8964C111.184 62.8964 111.332 62.842 111.431 62.7629C111.54 62.6887 111.6 62.5898 111.6 62.4909C111.595 62.387 111.555 62.3129 111.441 62.2189C111.347 62.1447 111.189 62.0903 110.971 62.0557L110.961 62.0507C110.763 62.0161 110.585 61.9716 110.461 61.8777C110.323 61.7985 110.224 61.6502 110.224 61.482C110.224 61.304 110.323 61.1507 110.461 61.0468C110.595 60.9578 110.778 60.8984 111.006 60.8984C111.293 60.8984 111.496 61.032 111.664 61.1358C111.714 61.1704 111.729 61.2397 111.694 61.2891C111.664 61.3386 111.595 61.3534 111.545 61.3188C111.382 61.21 111.219 61.0963 111.001 61.0963C110.818 61.0963 110.674 61.1457 110.58 61.2248C110.491 61.299 110.441 61.388 110.441 61.4771C110.441 61.5661 110.481 61.6304 110.57 61.6996C110.669 61.7689 110.818 61.8233 111.021 61.8529H111.03C111.243 61.8826 111.417 61.9469 111.57 62.0359C111.714 62.1299 111.818 62.303 111.818 62.486C111.818 62.6689 111.714 62.8222 111.565 62.9311C111.412 63.0448 111.229 63.1091 111.011 63.1091C110.654 63.1041 110.372 62.936 110.194 62.7926C110.149 62.758 110.144 62.6986 110.179 62.6541Z" fill="#263238"/>
<path d="M112.406 62.0112C112.406 61.3979 112.886 60.8984 113.485 60.8984C114.055 60.8984 114.51 61.3485 114.555 61.9271V61.9321V61.9469C114.555 62.0062 114.505 62.0458 114.446 62.0458H112.629C112.654 62.5305 113.03 62.8964 113.49 62.8964C113.783 62.8964 114.055 62.7431 114.203 62.4958C114.233 62.4414 114.302 62.4316 114.347 62.4612C114.396 62.4958 114.416 62.5601 114.382 62.6145C114.193 62.9162 113.862 63.114 113.485 63.114C112.886 63.114 112.406 62.6145 112.406 62.0112ZM112.639 61.8331H114.317C114.243 61.4177 113.891 61.116 113.485 61.116C113.065 61.116 112.718 61.4128 112.639 61.8331Z" fill="#263238"/>
<path d="M116.905 61.8063C116.905 61.4305 116.603 61.1239 116.221 61.1239C115.845 61.1239 115.543 61.4305 115.533 61.8063V63.0081V63.0279C115.528 63.0477 115.523 63.0625 115.508 63.0773C115.489 63.1021 115.459 63.1169 115.429 63.1169H115.404C115.375 63.107 115.345 63.0872 115.33 63.0576C115.325 63.0526 115.325 63.0477 115.325 63.0427C115.325 63.0378 115.32 63.0328 115.32 63.0328V63.0081V61.8063V61.7717V61.0151C115.32 60.9557 115.365 60.9062 115.429 60.9062C115.489 60.9062 115.533 60.9557 115.533 61.0151V61.2277C115.697 61.0348 115.944 60.9062 116.221 60.9062C116.721 60.9062 117.122 61.3118 117.122 61.8063V63.0081C117.122 63.0724 117.073 63.1169 117.013 63.1169C116.954 63.1169 116.905 63.0724 116.905 63.0081V61.8063Z" fill="#263238"/>
<path d="M118.861 61.0073C118.861 61.0617 118.807 61.1161 118.753 61.1161H118.465V62.7284C118.465 62.8372 118.574 62.8916 118.629 62.8916C118.683 62.8916 118.743 62.9509 118.743 63.0053C118.743 63.0597 118.683 63.1141 118.629 63.1141C118.406 63.1141 118.238 62.9509 118.238 62.7284V61.1161H117.96C117.852 61.1161 117.852 61.0617 117.852 61.0073C117.852 60.9529 117.852 60.8985 117.96 60.8985H118.238V60.0776C118.238 60.0232 118.292 59.9688 118.347 59.9688C118.406 59.9688 118.465 60.0232 118.465 60.0776V60.8985H118.753C118.807 60.8985 118.861 60.9529 118.861 61.0073Z" fill="#263238"/>
<path d="M122.033 61.0073C122.033 61.0617 121.979 61.1161 121.924 61.1161H121.637V62.7284C121.637 62.8372 121.746 62.8916 121.801 62.8916C121.855 62.8916 121.915 62.9509 121.915 63.0053C121.915 63.0597 121.855 63.1141 121.801 63.1141C121.578 63.1141 121.41 62.9509 121.41 62.7284V61.1161H121.132C121.023 61.1161 121.023 61.0617 121.023 61.0073C121.023 60.9529 121.023 60.8985 121.132 60.8985H121.41V60.0776C121.41 60.0232 121.464 59.9688 121.518 59.9688C121.578 59.9688 121.637 60.0232 121.637 60.0776V60.8985H121.924C121.979 60.8985 122.033 60.9529 122.033 61.0073Z" fill="#263238"/>
<path d="M123.948 60.8984C124.532 60.8984 124.997 61.4029 124.997 62.0062C124.997 62.6096 124.532 63.114 123.948 63.114C123.369 63.114 122.898 62.6096 122.898 62.0062C122.898 61.4029 123.369 60.8984 123.948 60.8984ZM123.948 62.8964C124.398 62.8964 124.78 62.5008 124.78 62.0062C124.78 61.5117 124.398 61.1111 123.948 61.1111C123.497 61.1111 123.116 61.5117 123.116 62.0062C123.111 62.4958 123.493 62.8964 123.948 62.8964Z" fill="#263238"/>
<path d="M127 61.0023C127 60.9429 127.05 60.8984 127.104 60.8984C127.168 60.8984 127.218 60.9429 127.218 61.0023V62.2041C127.218 62.5849 127.52 62.8865 127.896 62.8865C128.277 62.8865 128.579 62.5849 128.584 62.2041V61.0023C128.584 60.9825 128.589 60.9627 128.604 60.9479C128.604 60.9429 128.609 60.938 128.609 60.9331C128.614 60.9331 128.614 60.9281 128.619 60.9281C128.629 60.9133 128.644 60.9034 128.658 60.9034H128.668C128.673 60.9034 128.678 60.8984 128.683 60.8984H128.698H128.713C128.733 60.9034 128.748 60.9133 128.767 60.9232C128.777 60.9331 128.792 60.9479 128.792 60.9578C128.802 60.9726 128.807 60.9875 128.807 61.0023V62.2041V62.2436V62.936C128.807 63.5146 128.337 63.9746 127.753 63.9746C127.589 63.9746 127.436 63.935 127.297 63.8707C127.248 63.841 127.223 63.7767 127.252 63.7273C127.277 63.6729 127.337 63.658 127.391 63.6729C127.5 63.7273 127.629 63.757 127.753 63.757C128.213 63.757 128.584 63.391 128.589 62.936V62.7926C128.421 62.9805 128.178 63.1091 127.901 63.1091C127.406 63.1041 127.005 62.7036 127.005 62.2041V61.0023H127Z" fill="#263238"/>
<path d="M130.659 60.8984C131.243 60.8984 131.708 61.4029 131.708 62.0062C131.708 62.6096 131.243 63.114 130.659 63.114C130.08 63.114 129.609 62.6096 129.609 62.0062C129.609 61.4029 130.08 60.8984 130.659 60.8984ZM130.659 62.8964C131.109 62.8964 131.491 62.5008 131.491 62.0062C131.491 61.5117 131.109 61.1111 130.659 61.1111C130.208 61.1111 129.827 61.5117 129.827 62.0062C129.827 62.4958 130.208 62.8964 130.659 62.8964Z" fill="#263238"/>
<path d="M132.422 61.0072C132.422 60.9429 132.471 60.8984 132.531 60.8984C132.59 60.8984 132.64 60.9429 132.64 61.0072V62.214C132.64 62.5948 132.942 62.8964 133.318 62.9014C133.699 62.8964 134.006 62.5948 134.006 62.214V61.0072C134.006 60.9429 134.061 60.8984 134.115 60.8984C134.179 60.8984 134.229 60.9429 134.229 61.0072V62.214C134.229 62.7134 133.828 63.119 133.318 63.119C132.818 63.119 132.422 62.7134 132.422 62.214V61.0072Z" fill="#263238"/>
<path d="M135.239 61.0151C135.239 60.9508 135.289 60.9062 135.353 60.9062C135.408 60.9062 135.457 60.9508 135.457 61.0151V61.5047C135.467 61.4849 135.477 61.47 135.487 61.4503C135.655 61.1881 135.947 60.9062 136.373 60.9062C136.432 60.9062 136.482 60.9508 136.482 61.0151C136.482 61.0744 136.432 61.1239 136.373 61.1239C136.086 61.1239 135.883 61.2871 135.729 61.4849C135.581 61.6827 135.492 61.9102 135.462 61.9992C135.452 62.019 135.452 62.0239 135.452 62.0338V63.0081C135.452 63.0724 135.403 63.1169 135.348 63.1169C135.284 63.1169 135.234 63.0724 135.234 63.0081V61.0151H135.239Z" fill="#263238"/>
<path d="M140.162 61.8063C140.162 61.4305 139.86 61.1239 139.479 61.1239C139.103 61.1239 138.801 61.4305 138.791 61.8063V63.0081V63.0279C138.786 63.0477 138.781 63.0625 138.766 63.0773C138.746 63.1021 138.717 63.1169 138.687 63.1169H138.662C138.633 63.107 138.603 63.0872 138.588 63.0576C138.583 63.0526 138.583 63.0477 138.583 63.0427C138.583 63.0378 138.578 63.0328 138.578 63.0328V63.0081V61.8063V61.7717V61.0151C138.578 60.9557 138.623 60.9062 138.687 60.9062C138.746 60.9062 138.791 60.9557 138.791 61.0151V61.2277C138.954 61.0348 139.202 60.9062 139.479 60.9062C139.979 60.9062 140.38 61.3118 140.38 61.8063V63.0081C140.38 63.0724 140.331 63.1169 140.271 63.1169C140.212 63.1169 140.162 63.0724 140.162 63.0081V61.8063Z" fill="#263238"/>
<path d="M141.312 61.0072C141.312 60.9429 141.362 60.8984 141.421 60.8984C141.481 60.8984 141.53 60.9429 141.53 61.0072V62.214C141.53 62.5948 141.832 62.8964 142.209 62.9014C142.59 62.8964 142.897 62.5948 142.897 62.214V61.0072C142.897 60.9429 142.951 60.8984 143.006 60.8984C143.07 60.8984 143.119 60.9429 143.119 61.0072V62.214C143.119 62.7134 142.718 63.119 142.209 63.119C141.709 63.119 141.312 62.7134 141.312 62.214V61.0072Z" fill="#263238"/>
<path d="M147.303 61.8035C147.293 61.4276 146.996 61.116 146.615 61.116C146.239 61.116 145.932 61.4276 145.932 61.8035V63.0102V63.025C145.932 63.03 145.927 63.0349 145.927 63.0349V63.0448C145.917 63.0695 145.897 63.0893 145.873 63.1041C145.853 63.114 145.838 63.119 145.818 63.119H145.803H145.793C145.788 63.119 145.783 63.114 145.783 63.114C145.774 63.114 145.764 63.1041 145.759 63.0992C145.754 63.0992 145.749 63.0943 145.744 63.0893L145.729 63.0745C145.724 63.0695 145.724 63.0646 145.719 63.0646C145.719 63.0596 145.719 63.0596 145.714 63.0547C145.714 63.0547 145.714 63.0497 145.709 63.0448C145.709 63.0399 145.709 63.0349 145.704 63.03V63.0151V63.0052V61.7985C145.704 61.4227 145.402 61.1111 145.021 61.1111C144.64 61.1111 144.338 61.4227 144.338 61.7985V63.0052C144.338 63.0399 144.318 63.0745 144.288 63.0893C144.283 63.0943 144.269 63.1041 144.264 63.1041C144.259 63.1091 144.254 63.1091 144.244 63.1091H144.229H144.214C144.175 63.1041 144.135 63.0695 144.125 63.03V63.0052V61.7985V61.7639V61.0023C144.125 60.9429 144.175 60.8984 144.229 60.8984C144.293 60.8984 144.338 60.9429 144.338 61.0023V61.215C144.501 61.0221 144.744 60.8984 145.021 60.8984C145.363 60.8984 145.66 61.0864 145.813 61.3683C145.972 61.0864 146.269 60.8984 146.61 60.8984C147.11 60.8984 147.511 61.299 147.511 61.7985V63.0052C147.511 63.0596 147.467 63.1091 147.402 63.1091C147.343 63.1091 147.298 63.0596 147.298 63.0052V61.8035H147.303Z" fill="#263238"/>
<path d="M148.43 62.0599V62.0154V61.9709V60.0619C148.43 60.0026 148.479 59.9531 148.539 59.9531C148.603 59.9531 148.652 60.0026 148.652 60.0619V61.3379C148.846 61.0758 149.152 60.9027 149.504 60.9027C150.103 60.9027 150.578 61.4022 150.578 62.0154C150.578 62.6188 150.103 63.1183 149.504 63.1183C149.157 63.1183 148.846 62.9501 148.652 62.688V63.0095C148.652 63.0688 148.603 63.1183 148.539 63.1183C148.479 63.1183 148.43 63.0688 148.43 63.0095V62.0599ZM148.652 62.0154C148.652 62.505 149.039 62.8957 149.504 62.8957C149.974 62.8957 150.355 62.5001 150.355 62.0154C150.355 61.5209 149.974 61.1252 149.504 61.1252C149.049 61.1252 148.672 61.506 148.652 61.9808V62.0154Z" fill="#263238"/>
<path d="M151.266 62.0112C151.266 61.3979 151.746 60.8984 152.345 60.8984C152.914 60.8984 153.37 61.3485 153.414 61.9271V61.9321V61.9469C153.414 62.0062 153.365 62.0458 153.305 62.0458H151.488C151.513 62.5305 151.889 62.8964 152.35 62.8964C152.642 62.8964 152.914 62.7431 153.063 62.4958C153.092 62.4414 153.162 62.4316 153.206 62.4612C153.256 62.4958 153.276 62.5601 153.241 62.6145C153.053 62.9162 152.721 63.114 152.345 63.114C151.741 63.114 151.266 62.6145 151.266 62.0112ZM151.493 61.8331H153.172C153.097 61.4177 152.746 61.116 152.34 61.116C151.924 61.116 151.578 61.4128 151.493 61.8331Z" fill="#263238"/>
<path d="M154.083 61.0151C154.083 60.9508 154.133 60.9062 154.197 60.9062C154.251 60.9062 154.301 60.9508 154.301 61.0151V61.5047C154.311 61.4849 154.321 61.47 154.331 61.4503C154.499 61.1881 154.791 60.9062 155.217 60.9062C155.276 60.9062 155.326 60.9508 155.326 61.0151C155.326 61.0744 155.276 61.1239 155.217 61.1239C154.93 61.1239 154.727 61.2871 154.573 61.4849C154.425 61.6827 154.336 61.9102 154.306 61.9992C154.296 62.019 154.296 62.0239 154.296 62.0338V63.0081C154.296 63.0724 154.246 63.1169 154.192 63.1169C154.128 63.1169 154.078 63.0724 154.078 63.0081V61.0151H154.083Z" fill="#263238"/>
<path d="M80.3219 51.1145C80.3021 51.0948 80.2873 51.0898 80.2625 51.07C80.2625 51.0601 80.2526 51.0601 80.2526 51.0453C80.2328 51.0255 80.2179 51.0107 80.208 50.9909C80.208 50.9909 80.1981 50.9909 80.1981 50.981C80.1882 50.9612 80.1734 50.9266 80.1536 50.9118L78.0149 45.8129C77.911 45.5755 78.0248 45.2887 78.2773 45.1947C78.5149 45.0909 78.7922 45.2046 78.8961 45.447L80.5991 49.4875L82.3022 45.447C82.4061 45.2046 82.6933 45.0909 82.9309 45.1947C83.1735 45.2887 83.2873 45.5805 83.1933 45.8129L81.0348 50.9118C81.0249 50.9316 81.015 50.9662 81.0001 50.981C81.0001 50.9909 81.0001 50.9909 80.9902 50.9909C80.9803 51.0107 80.9556 51.0255 80.9457 51.0453C80.9358 51.0651 80.9358 51.0651 80.9259 51.07C80.9061 51.0898 80.8912 51.0948 80.8714 51.1145C80.8714 51.1145 80.8714 51.1145 80.8516 51.1244C80.8318 51.1343 80.8071 51.159 80.7823 51.1689C80.7724 51.1689 80.7724 51.1689 80.7625 51.1788C80.7378 51.1788 80.718 51.1887 80.6932 51.1986C80.6932 51.1986 80.6833 51.1986 80.6734 51.1986C80.6388 51.2085 80.614 51.2085 80.5843 51.2085C80.5595 51.2085 80.5249 51.2085 80.4952 51.1986C80.4952 51.1986 80.4853 51.1986 80.4754 51.1986C80.4556 51.1887 80.4209 51.1788 80.4061 51.1788C80.4061 51.1689 80.3962 51.1689 80.3962 51.1689C80.3962 51.1689 80.3962 51.1689 80.3863 51.1689C80.3665 51.159 80.3318 51.1343 80.3071 51.1145C80.3318 51.1145 80.3318 51.1145 80.3219 51.1145Z" fill="#263238"/>
<path d="M83.875 49.0169C83.8849 47.83 84.8107 46.8359 86.0087 46.8359C87.1424 46.8359 88.0434 47.6816 88.1127 48.8636C88.1127 48.8735 88.1127 48.8883 88.1127 48.9081C88.1127 48.9279 88.1127 48.9675 88.1028 48.9872C88.0781 49.195 87.8949 49.3384 87.6474 49.3384H84.8701C84.9146 49.5411 85.0087 49.7686 85.1671 49.9121C85.3503 50.1198 85.7018 50.278 86.0038 50.3028C86.3206 50.3275 86.6919 50.2484 86.9147 50.0852C87.0979 49.8923 87.4543 49.917 87.5682 50.0604C87.682 50.1841 87.7711 50.4462 87.5682 50.6292C87.1375 51.0199 86.6226 51.2078 86.0038 51.2078C84.8107 51.193 83.8849 50.2038 83.875 49.0169ZM84.8305 48.5916H87.3058C87.2167 48.2405 86.7711 47.7261 86.0137 47.6668C85.2661 47.6965 84.8998 48.2306 84.8305 48.5916Z" fill="#263238"/>
<path d="M92.0134 47.2942C92.0134 47.5366 91.8105 47.7591 91.5481 47.7591C91.3451 47.7591 91.1718 47.8135 91.0233 47.9273C90.855 48.0311 90.7263 48.1795 90.6223 48.3476C90.4144 48.6246 90.3055 48.9609 90.2659 49.0796V50.7363C90.2659 50.9885 90.0481 51.2012 89.7857 51.2012C89.5332 51.2012 89.3203 50.9935 89.3203 50.7363V47.2992C89.3203 47.047 89.5282 46.8442 89.7857 46.8442C90.0481 46.8442 90.2659 47.047 90.2659 47.2992V47.3585C90.3203 47.2992 90.3897 47.225 90.4491 47.1854C90.7362 46.9926 91.1124 46.8343 91.5481 46.8442C91.8154 46.8392 92.0134 47.042 92.0134 47.2942Z" fill="#263238"/>
<path d="M94.1125 45.7387C94.1125 46.0009 93.9095 46.2185 93.6422 46.2185C93.3798 46.2185 93.1719 46.0009 93.1719 45.7387V45.5558C93.1719 45.2937 93.3798 45.0859 93.6422 45.0859C93.9145 45.0859 94.1125 45.2937 94.1125 45.5558V45.7387ZM94.1125 47.3213V50.7238C94.1125 50.986 93.9095 51.1937 93.6422 51.1937C93.3798 51.1937 93.1719 50.986 93.1719 50.7238V47.3213C93.1719 47.0444 93.3798 46.8416 93.6422 46.8416C93.9145 46.8367 94.1125 47.0394 94.1125 47.3213Z" fill="#263238"/>
<path d="M97.0454 46.542V46.6656H97.3078C97.5702 46.6656 97.788 46.8734 97.788 47.1454C97.788 47.4075 97.5702 47.6251 97.3078 47.6251H97.0454V50.7061C97.0454 50.9683 96.8375 51.1859 96.5652 51.1859C96.293 51.1859 96.085 50.9683 96.085 50.7061V47.6251H95.8573C95.585 47.6251 95.3672 47.4075 95.3672 47.1454C95.3672 46.8734 95.585 46.6656 95.8573 46.6656H96.085V46.542C96.085 46.2205 96.1197 45.9386 96.2534 45.6864C96.3771 45.4243 96.6197 45.2215 96.8821 45.1474C97.0554 45.093 97.2237 45.0781 97.4068 45.0781C97.6692 45.0781 97.8871 45.2957 97.8871 45.5578C97.8871 45.8298 97.6692 46.0474 97.4068 46.0474C97.293 46.0474 97.2138 46.0573 97.1791 46.0722C97.1445 46.0821 97.1346 46.092 97.1247 46.0969C97.1197 46.0969 97.0454 46.2205 97.0454 46.542Z" fill="#263238"/>
<path d="M99.7297 45.7387C99.7297 46.0009 99.5267 46.2185 99.2594 46.2185C98.997 46.2185 98.7891 46.0009 98.7891 45.7387V45.5558C98.7891 45.2937 98.997 45.0859 99.2594 45.0859C99.5317 45.0859 99.7297 45.2937 99.7297 45.5558V45.7387ZM99.7297 47.3213V50.7238C99.7297 50.986 99.5267 51.1937 99.2594 51.1937C98.997 51.1937 98.7891 50.986 98.7891 50.7238V47.3213C98.7891 47.0444 98.997 46.8416 99.2594 46.8416C99.5267 46.8367 99.7297 47.0394 99.7297 47.3213Z" fill="#263238"/>
<path d="M100.93 49.0268C100.93 47.8152 101.945 46.8458 103.148 46.8359C103.672 46.8359 104.162 47.0288 104.539 47.3157C104.742 47.4739 104.776 47.7706 104.633 47.9635C104.459 48.1712 104.177 48.2059 103.979 48.0525C103.752 47.8844 103.474 47.7756 103.148 47.7756C102.44 47.7756 101.855 48.3592 101.855 49.0318C101.855 49.7043 102.44 50.278 103.148 50.278C103.459 50.278 103.752 50.1643 103.979 50.0011C104.172 49.8527 104.459 49.8873 104.633 50.095C104.771 50.2879 104.737 50.5649 104.539 50.7429C104.162 51.0149 103.672 51.2078 103.148 51.2078C101.94 51.1979 100.93 50.2236 100.93 49.0268Z" fill="#263238"/>
<path d="M109.929 49.0268V50.738C109.929 50.9902 109.721 51.2028 109.464 51.2028C109.236 51.2028 109.063 51.0347 109.008 50.827C108.677 51.0644 108.281 51.2028 107.845 51.2028C107.251 51.2028 106.736 50.9605 106.36 50.5649C105.983 50.1643 105.766 49.6203 105.766 49.0268C105.766 48.4235 105.983 47.8844 106.36 47.4887C106.736 47.0882 107.251 46.8359 107.845 46.8359C108.281 46.8359 108.677 46.9843 109.008 47.2217C109.063 47.0041 109.236 46.8359 109.464 46.8359C109.716 46.8359 109.929 47.0437 109.929 47.3058V49.0268ZM108.998 49.0268C108.998 48.6608 108.87 48.3443 108.657 48.1267C108.449 47.8893 108.152 47.7706 107.845 47.7706C107.528 47.7706 107.231 47.8943 107.033 48.1267C106.825 48.3443 106.701 48.6608 106.701 49.0268C106.701 49.3829 106.825 49.6994 107.033 49.9269C107.236 50.1445 107.533 50.2681 107.845 50.2681C108.152 50.2681 108.449 50.1445 108.657 49.9269C108.87 49.6994 108.998 49.3829 108.998 49.0268Z" fill="#263238"/>
<path d="M113.606 47.3114C113.606 47.5735 113.379 47.7911 113.116 47.7911H112.898V50.2293C113.171 50.2293 113.379 50.4469 113.379 50.7189C113.379 50.9909 113.171 51.1986 112.898 51.1986C112.364 51.1986 111.928 50.7634 111.928 50.2293V47.7911H111.676C111.403 47.7911 111.195 47.5735 111.195 47.3114C111.195 47.0394 111.403 46.8317 111.676 46.8317H111.928V45.5657C111.928 45.2937 112.146 45.0859 112.418 45.0859C112.69 45.0859 112.898 45.2937 112.898 45.5657V46.8317H113.116C113.379 46.8317 113.606 47.0394 113.606 47.3114Z" fill="#263238"/>
<path d="M116.089 45.7387C116.089 46.0009 115.886 46.2185 115.619 46.2185C115.356 46.2185 115.148 46.0009 115.148 45.7387V45.5558C115.148 45.2937 115.356 45.0859 115.619 45.0859C115.891 45.0859 116.089 45.2937 116.089 45.5558V45.7387ZM116.089 47.3213V50.7238C116.089 50.986 115.886 51.1937 115.619 51.1937C115.356 51.1937 115.148 50.986 115.148 50.7238V47.3213C115.148 47.0444 115.356 46.8416 115.619 46.8416C115.886 46.8367 116.089 47.0394 116.089 47.3213Z" fill="#263238"/>
<path d="M117.995 50.5571C117.618 50.1713 117.391 49.6322 117.391 49.019C117.391 48.4255 117.618 47.9112 117.995 47.4908C118.386 47.0803 118.896 46.8281 119.5 46.8281C120.079 46.8281 120.599 47.0803 120.96 47.4908C121.356 47.9112 121.574 48.4255 121.574 49.019C121.574 49.6322 121.356 50.1713 120.96 50.5571C120.604 50.9675 120.079 51.2198 119.5 51.2198C118.896 51.2247 118.386 50.9675 117.995 50.5571ZM118.341 49.0239C118.341 49.3998 118.455 49.7064 118.658 49.9488C118.876 50.1565 119.163 50.2702 119.5 50.2702C119.807 50.2702 120.084 50.1565 120.302 49.9488C120.519 49.7064 120.643 49.3998 120.643 49.0239C120.643 48.6679 120.519 48.3513 120.302 48.114C120.084 47.9211 119.802 47.7826 119.5 47.7826C119.168 47.7826 118.881 47.9211 118.658 48.114C118.455 48.3513 118.341 48.6629 118.341 49.0239Z" fill="#263238"/>
<path d="M126.698 48.6481V50.7351C126.698 50.9873 126.495 51.2 126.242 51.2C126 51.2 125.777 50.9923 125.777 50.7351V48.6481C125.777 48.1585 125.366 47.7678 124.866 47.7678C124.376 47.7678 123.99 48.1585 123.99 48.6481V50.7351C123.99 50.7598 123.99 50.7895 123.97 50.8241C123.925 51.0318 123.732 51.2 123.504 51.2C123.242 51.2 123.039 50.9923 123.039 50.7351V48.6481V47.293C123.039 47.0408 123.242 46.8281 123.504 46.8281C123.688 46.8281 123.856 46.932 123.93 47.1001C124.193 46.932 124.514 46.8281 124.856 46.8281C125.886 46.8331 126.698 47.659 126.698 48.6481Z" fill="#263238"/>
<path d="M215.999 19.3654C215.999 19.3654 212.747 45.3789 207.4 51.2344C200.984 58.2571 196.326 57.2284 193.737 60.8485C193.732 60.8485 193.732 60.8535 193.732 60.8535C191.142 57.2284 186.484 58.262 180.063 51.2295C174.716 45.374 171.469 19.3605 171.469 19.3605C185.553 12.5307 193.732 4.875 193.732 4.875C193.732 4.875 193.732 4.875 193.737 4.87995C193.989 5.11733 202.133 12.6444 215.999 19.3654Z" fill="#FBB03B"/>
<path opacity="0.1" d="M193.737 4.88489V60.8485C193.732 60.8485 193.732 60.8535 193.732 60.8535C191.142 57.2284 186.484 58.262 180.063 51.2295C174.716 45.374 171.469 19.3605 171.469 19.3605C185.553 12.5307 193.732 4.875 193.732 4.875C193.732 4.875 193.732 4.87995 193.737 4.88489Z" fill="black"/>
<path d="M174.922 21.4589C174.922 21.4589 177.669 43.4369 182.184 48.3824C187.61 54.322 191.546 53.4516 193.734 56.5079C195.922 53.4466 199.858 54.322 205.284 48.3824C209.799 43.4369 212.542 21.4589 212.542 21.4589C200.64 15.6875 193.734 9.21875 193.734 9.21875C193.734 9.21875 186.818 15.6826 174.922 21.4589Z" fill="#FBB03B"/>
<path opacity="0.2" d="M212.534 21.4618C212.534 21.4618 209.786 43.4348 205.271 48.3853C199.85 54.3199 195.92 53.4545 193.727 56.5059V9.22656C193.939 9.42438 200.821 15.7794 212.534 21.4618Z" fill="white"/>
<path d="M193.739 41.5843C198.556 41.5843 202.462 37.6829 202.462 32.8703C202.462 28.0577 198.556 24.1562 193.739 24.1562C188.921 24.1562 185.016 28.0577 185.016 32.8703C185.016 37.6829 188.921 41.5843 193.739 41.5843Z" fill="#455A64"/>
<path d="M192.746 38.5297L188.859 34.4941L190.3 33.1094L192.444 35.3299L197.058 28.2578L198.736 29.3458L192.746 38.5297Z" fill="white"/>
<path d="M212.538 57.0282L211.306 57.2557L211.028 58.5563L210.756 57.2557L209.523 57.0282L210.751 56.7265L211.028 55.5L211.311 56.7265L212.538 57.0282Z" fill="#FBB03B"/>
<path d="M175.999 47.1532L174.767 47.3807L174.489 48.6764L174.217 47.3807L172.984 47.1482L174.212 46.8515L174.489 45.625L174.772 46.8515L175.999 47.1532Z" fill="#FBB03B"/>
<path d="M181.629 12.911L180.392 13.1385L180.119 14.4392L179.842 13.1385L178.609 12.911L179.837 12.6093L180.119 11.3828L180.397 12.6093L181.629 12.911Z" fill="#FBB03B"/>
<path d="M210.332 51.1915L209.644 51.3152L209.49 52.0421L209.337 51.3152L208.648 51.1866L209.332 51.0234L209.49 50.3359L209.648 51.0234L210.332 51.1915Z" fill="#FBB03B"/>
<path d="M215.102 36.7384L214.409 36.867L214.256 37.594L214.102 36.867L213.414 36.7384L214.097 36.5702L214.256 35.8828L214.414 36.5702L215.102 36.7384Z" fill="#FBB03B"/>
<path d="M209.246 11.3819L208.558 11.5105L208.404 12.2375L208.251 11.5105L207.562 11.3819L208.246 11.2137L208.404 10.5312L208.563 11.2137L209.246 11.3819Z" fill="#FBB03B"/>
<path d="M191.633 63.9756L190.945 64.1042L190.792 64.8312L190.638 64.1042L189.945 63.9756L190.633 63.8075L190.792 63.125L190.945 63.8075L191.633 63.9756Z" fill="#FBB03B"/>
<path d="M172.165 48.8428L171.477 48.9714L171.323 49.6984L171.17 48.9714L170.477 48.8428L171.165 48.6796L171.323 47.9922L171.477 48.6796L172.165 48.8428Z" fill="#FBB03B"/>
<path d="M173.243 28.715L172.555 28.8386L172.396 29.5656L172.243 28.8386L171.555 28.715L172.243 28.5468L172.396 27.8594L172.555 28.5468L173.243 28.715Z" fill="#FBB03B"/>
<path d="M202.162 54.4453C201.904 54.4453 201.904 54.8459 202.162 54.8459C202.419 54.8459 202.419 54.4453 202.162 54.4453Z" fill="#FBB03B"/>
<path d="M170.381 18.2578C170.123 18.2578 170.123 18.6584 170.381 18.6584C170.638 18.6584 170.638 18.2578 170.381 18.2578Z" fill="#FBB03B"/>
<path d="M208.404 55.5703C208.147 55.5703 208.147 55.9709 208.404 55.9709C208.661 55.9709 208.661 55.5703 208.404 55.5703Z" fill="#FBB03B"/>
<path d="M188.162 24.3828C187.904 24.3828 187.904 24.7834 188.162 24.7834C188.419 24.7834 188.419 24.3828 188.162 24.3828Z" fill="#FBB03B"/>
<path d="M169.654 32.4297C169.397 32.4297 169.397 32.8303 169.654 32.8303C169.911 32.8303 169.911 32.4297 169.654 32.4297Z" fill="#FBB03B"/>
<path d="M164.997 30.25C164.814 30.25 164.814 30.5319 164.997 30.5319C165.18 30.5319 165.18 30.25 164.997 30.25Z" fill="#FBB03B"/>
<path d="M203.137 8.77344C202.954 8.77344 202.954 9.05533 203.137 9.05533C203.316 9.05533 203.321 8.77344 203.137 8.77344Z" fill="#FBB03B"/>
<path d="M183.395 57.125C183.212 57.125 183.212 57.4069 183.395 57.4069C183.578 57.4118 183.578 57.125 183.395 57.125Z" fill="#FBB03B"/>
<path d="M178.981 54.5312C178.486 54.5312 178.486 55.2978 178.981 55.2978C179.471 55.2929 179.471 54.5312 178.981 54.5312Z" fill="#FBB03B"/>
<path d="M83.8125 87.9922V96.3155H86.0056V100.104L89.8027 96.3155H115.581V87.9922H83.8125Z" fill="white"/>
<path d="M83.812 87.9892C83.8318 90.7934 83.916 93.5678 83.916 96.3076L83.812 96.2038L86.0101 96.1988H86.119V96.3076L86.1289 100.101L85.921 100.017L89.7033 96.2137C89.7478 96.1692 89.7379 96.1741 89.7973 96.1741C96.2183 96.1543 109.154 96.1345 115.575 96.1296L115.397 96.3076L115.422 87.9892L115.575 88.1426C107.659 88.1327 91.7281 88.0486 83.812 87.9892ZM83.812 87.9892L99.654 87.8903L115.58 87.8359H115.734V87.9892L115.758 96.3076V96.4857H115.58L102.694 96.4708C102.763 96.4263 89.426 96.5203 89.9013 96.4016L86.0943 100.18L85.8863 100.383V100.091L85.8962 96.2977L86.0052 96.4065L83.8071 96.4016H83.7031V96.2977C83.7081 93.5085 83.7922 90.734 83.812 87.9892Z" fill="#263238"/>
<path d="M89.3662 91.0013V92.119H89.0494V91.0013C89.0494 90.576 88.7276 90.2298 88.3316 90.2298C87.9355 90.2298 87.6137 90.576 87.6137 91.0013V92.119H87.2969V91.0013C87.2969 90.393 87.7622 89.8984 88.3316 89.8984C88.9009 89.8984 89.3662 90.393 89.3662 91.0013Z" fill="#263238"/>
<path d="M87.2969 91.2969L87.6137 91.3068V92.1228H87.2969V91.2969Z" fill="#263238"/>
<path d="M89.3637 91.3742V92.116H89.0469V91.3594L89.3637 91.3742Z" fill="#263238"/>
<path d="M89.7669 91.7031H86.8906V94.0918H89.7669V91.7031Z" fill="#263238"/>
<path d="M94.3653 91.1641C93.9494 91.9356 93.3504 92.5389 92.5781 92.9494C92.989 92.1779 93.593 91.5795 94.3653 91.1641Z" fill="#263238"/>
<path d="M92.5781 91.1641C93.3504 91.5795 93.9544 92.1779 94.3653 92.9494C93.588 92.5389 92.989 91.9356 92.5781 91.1641Z" fill="#263238"/>
<path d="M94.7329 92.0601C93.8913 92.3123 93.0447 92.3172 92.2031 92.0601C93.0447 91.8029 93.8913 91.8029 94.7329 92.0601Z" fill="#263238"/>
<path d="M93.4628 90.7969C93.7153 91.6376 93.7202 92.4833 93.4628 93.324C93.2103 92.4833 93.2103 91.6376 93.4628 90.7969Z" fill="#263238"/>
<path d="M98.7247 91.1641C98.3088 91.9356 97.7098 92.5389 96.9375 92.9494C97.3484 92.1779 97.9524 91.5795 98.7247 91.1641Z" fill="#263238"/>
<path d="M96.9375 91.1641C97.7098 91.5795 98.3138 92.1779 98.7247 92.9494C97.9474 92.5389 97.3484 91.9356 96.9375 91.1641Z" fill="#263238"/>
<path d="M99.0923 92.0601C98.2507 92.3123 97.4041 92.3172 96.5625 92.0601C97.3992 91.8029 98.2507 91.8029 99.0923 92.0601Z" fill="#263238"/>
<path d="M97.824 90.7969C98.0765 91.6376 98.0815 92.4833 97.824 93.324C97.5666 92.4833 97.5716 91.6376 97.824 90.7969Z" fill="#263238"/>
<path d="M103.084 91.1641C102.668 91.9356 102.069 92.5389 101.297 92.9494C101.708 92.1779 102.307 91.5795 103.084 91.1641Z" fill="#263238"/>
<path d="M101.297 91.1641C102.069 91.5795 102.673 92.1779 103.084 92.9494C102.307 92.5389 101.708 91.9356 101.297 91.1641Z" fill="#263238"/>
<path d="M103.452 92.0601C102.61 92.3123 101.763 92.3172 100.922 92.0601C101.763 91.8029 102.615 91.8029 103.452 92.0601Z" fill="#263238"/>
<path d="M102.191 90.7969C102.444 91.6376 102.449 92.4833 102.191 93.324C101.934 92.4833 101.939 91.6376 102.191 90.7969Z" fill="#263238"/>
<path d="M107.443 91.1641C107.028 91.9356 106.429 92.5389 105.656 92.9494C106.072 92.1779 106.671 91.5795 107.443 91.1641Z" fill="#263238"/>
<path d="M105.656 91.1641C106.429 91.5795 107.033 92.1779 107.443 92.9494C106.671 92.5389 106.072 91.9356 105.656 91.1641Z" fill="#263238"/>
<path d="M107.811 92.0601C106.969 92.3123 106.123 92.3172 105.281 92.0601C106.123 91.8029 106.974 91.8029 107.811 92.0601Z" fill="#263238"/>
<path d="M106.551 90.7969C106.803 91.6376 106.808 92.4833 106.551 93.324C106.293 92.4833 106.298 91.6376 106.551 90.7969Z" fill="#263238"/>
<path d="M111.803 91.1641C111.387 91.9356 110.788 92.5389 110.016 92.9494C110.431 92.1779 111.031 91.5795 111.803 91.1641Z" fill="#263238"/>
<path d="M110.016 91.1641C110.788 91.5795 111.392 92.1779 111.803 92.9494C111.031 92.5389 110.431 91.9356 110.016 91.1641Z" fill="#263238"/>
<path d="M112.17 92.0601C111.329 92.3123 110.482 92.3172 109.641 92.0601C110.482 91.8029 111.334 91.8029 112.17 92.0601Z" fill="#263238"/>
<path d="M110.912 90.7969C111.164 91.6376 111.169 92.4833 110.912 93.324C110.654 92.4833 110.654 91.6376 110.912 90.7969Z" fill="#263238"/>
<path d="M49.0067 188.461L20.4219 211.487H22.0308L55.0464 188.461H49.0067Z" fill="#C7C7C7"/>
<path d="M51.6915 188.461L37.5625 211.487H39.1764L56.4887 188.461H51.6915Z" fill="#C7C7C7"/>
<path d="M58.6224 188.461L72.7465 211.487H71.1375L53.8203 188.461H58.6224Z" fill="#C7C7C7"/>
<path d="M61.0866 188.461L89.6714 211.487H88.0625L55.0469 188.461H61.0866Z" fill="#C7C7C7"/>
<path d="M108.794 180.016V173.28L69.541 171.668L48.8029 116.367H1.29688L18.1042 180.016L58.2685 191.277H60.7834L108.794 180.016Z" fill="#455A64"/>
<path opacity="0.1" d="M1.29688 116.367H6.73264L24.2429 174.383L59.7784 184.437L108.794 173.28V180.016L60.7834 191.277H58.2685L18.1042 180.016L1.29688 116.367Z" fill="black"/>
<path d="M87.4137 221.952C86.2157 221.497 59.2695 199.44 58.7745 197.951C58.5814 197.387 61.5716 193.277 65.3192 188.416C66.1311 187.367 66.9727 186.289 67.8341 185.196C73.4184 178.105 79.5126 170.711 79.5126 170.711L97.5823 185.414L85.4038 199.494L82.7354 202.585C82.7354 202.585 89.2702 215.641 89.6415 217.332C90.0029 219.024 88.6167 222.407 87.4137 221.952Z" fill="#AD6359"/>
<path d="M87.4133 221.95C86.2152 221.496 59.2691 199.438 58.774 197.95C58.5463 197.262 63.0018 191.343 67.8336 185.195L85.4033 199.493L82.7349 202.584C82.7349 202.584 89.2697 215.64 89.641 217.331C90.0024 219.023 88.6163 222.405 87.4133 221.95Z" fill="#EBEBEB"/>
<path d="M87.4137 221.95C86.2157 221.495 59.2695 199.438 58.7745 197.949C58.5814 197.385 61.5716 193.276 65.3192 188.414L82.7354 202.583C82.7354 202.583 89.2702 215.639 89.6415 217.331C90.0029 219.022 88.6167 222.405 87.4137 221.95Z" fill="#FBB03B"/>
<path d="M87.9155 220.556C83.4897 216.748 65.2764 201.808 60.6129 198.38C60.5733 198.351 60.5535 198.375 60.5882 198.41C64.8903 202.278 83.2273 217.075 87.8561 220.635C87.9502 220.71 88.0096 220.64 87.9155 220.556Z" fill="#263238"/>
<path d="M88.7032 214.951C87.6685 214.031 86.2031 213.68 85.0992 213.843C84.0348 213.997 82.8516 214.466 82.1139 215.426C82.0941 215.456 82.1436 215.495 82.1684 215.47C83.8764 213.917 86.7527 213.68 88.6586 215.01C88.6933 215.035 88.7379 214.981 88.7032 214.951Z" fill="#263238"/>
<path d="M84.1176 204.472C82.3304 202.969 79.7116 201.891 77.3749 202.444C77.2858 202.464 77.3155 202.593 77.3947 202.613C79.7215 203.107 81.7859 203.755 83.9691 204.719C84.1226 204.789 84.2463 204.581 84.1176 204.472Z" fill="#263238"/>
<path d="M85.0707 206.152C83.2836 204.648 80.6647 203.57 78.328 204.124C78.2389 204.144 78.2686 204.272 78.3478 204.292C80.6746 204.787 82.739 205.435 84.9222 206.399C85.0757 206.468 85.1994 206.261 85.0707 206.152Z" fill="#263238"/>
<path d="M86.016 207.839C84.2289 206.336 81.61 205.258 79.2733 205.812C79.1842 205.831 79.2139 205.96 79.2931 205.98C81.6199 206.474 83.6843 207.122 85.8675 208.087C86.021 208.156 86.1448 207.948 86.016 207.839Z" fill="#263238"/>
<path d="M86.9692 209.527C85.182 208.023 82.5631 206.945 80.2264 207.499C80.1373 207.519 80.167 207.647 80.2462 207.667C82.573 208.162 84.6374 208.81 86.8206 209.774C86.9692 209.843 87.0979 209.636 86.9692 209.527Z" fill="#263238"/>
<path d="M65.2781 195.037C63.2434 193.381 60.6691 196.536 62.7038 198.193C64.7385 199.849 67.3178 196.694 65.2781 195.037Z" fill="white"/>
<path d="M90.0255 201.253C89.7334 199.744 87.971 199.542 86.763 199.868C84.8026 200.397 82.7085 201.668 81.3322 203.142C81.2976 203.177 81.3124 203.216 81.3471 203.241C81.2778 203.404 81.3421 203.637 81.555 203.651C83.5699 203.815 85.7086 204.24 87.7136 203.78C88.8819 203.513 90.3027 202.677 90.0255 201.253ZM84.659 203.275C83.664 203.221 82.6788 203.112 81.6837 203.092C82.7431 202.455 83.7729 201.777 84.8967 201.248C85.4313 200.996 85.9907 200.748 86.5551 200.57C87.4363 200.293 90.4512 200.239 89.0205 202.351C88.2334 203.518 85.8472 203.345 84.659 203.275Z" fill="#263238"/>
<path d="M76.2899 200.13C77.6662 201.658 79.6563 202.544 81.3989 203.567C81.5821 203.676 81.7653 203.518 81.8049 203.35C81.8445 203.35 81.8791 203.325 81.8742 203.276C81.5969 201.278 80.6217 199.032 79.3246 197.474C78.5226 196.51 76.9681 195.664 75.8592 196.728C74.8047 197.737 75.4879 199.24 76.2899 200.13ZM76.0424 198.211C76.0919 195.659 78.5177 197.44 79.082 198.172C79.4434 198.642 79.7553 199.166 80.0474 199.68C80.6613 200.758 81.1118 201.906 81.6118 203.033C80.785 202.474 79.9187 201.995 79.0771 201.47C78.0672 200.847 76.0127 199.616 76.0424 198.211Z" fill="#263238"/>
<path d="M116.354 157.797C114.987 167.252 91.2936 194.3 88.5559 197.405C88.1499 197.86 87.9321 198.113 87.9321 198.113L68.7881 183.043L69.0158 182.762L86.3034 160.709L35.5547 159.795L55.0056 145.062C55.0056 145.062 56.5601 145.982 59.8127 145.546C71.0357 144.043 96.3333 140.725 102.284 141.036C109.962 141.442 117.606 149.122 116.354 157.797Z" fill="#263238"/>
<path d="M92.515 152.509C91.8467 153.166 91.312 153.997 90.7328 154.734C90.1238 155.515 89.5001 156.287 88.8911 157.068C88.8862 157.078 88.8812 157.083 88.8713 157.093C88.9803 156.866 89.0892 156.633 89.203 156.406C89.5892 155.624 89.906 154.818 90.3615 154.076C90.3912 154.032 90.3219 153.987 90.2922 154.032C89.8219 154.769 89.2773 155.471 88.8763 156.252C88.6882 156.618 88.505 156.989 88.3367 157.365C88.2426 157.573 88.1486 157.78 88.0693 157.988C88.0297 158.082 87.9852 158.186 87.9555 158.29C87.6832 158.651 87.4109 159.017 87.1485 159.388C86.5644 160.209 86.0495 161.079 85.4604 161.895C85.4307 161.94 85.5 161.979 85.5297 161.94C86.1238 161.173 86.7921 160.461 87.401 159.699C88.0198 158.928 88.604 158.132 89.1832 157.325C89.7476 156.544 90.3021 155.753 90.8664 154.966C91.4358 154.175 92.1041 153.399 92.5694 152.543C92.5744 152.518 92.5397 152.484 92.515 152.509Z" fill="#37474F"/>
<path d="M90.5727 193.667C89.4836 192.718 88.3152 191.842 87.1667 190.962C86.0132 190.077 84.8597 189.197 83.6963 188.326C81.3745 186.58 79.0576 184.82 76.711 183.109C75.4239 182.169 74.1219 181.239 72.7852 180.369C72.7258 180.329 72.6614 180.423 72.7159 180.473C74.9238 182.357 77.2704 184.073 79.5873 185.814C81.9141 187.56 84.2458 189.296 86.5974 191.007C87.8845 191.941 89.1668 192.906 90.5084 193.761C90.5628 193.796 90.6173 193.707 90.5727 193.667Z" fill="#37474F"/>
<path d="M49.3835 120.086C54.646 130.1 60.8937 140.728 66.8146 142.266C72.4484 143.73 85.8497 129.71 88.122 125.056C88.9042 123.454 78.2951 116.421 76.795 117.603C73.9633 119.829 67.7701 126.886 66.8839 126.708C65.9681 126.52 58.4827 119.838 51.7004 114.215C47.5914 110.813 45.7349 113.152 49.3835 120.086Z" fill="#AD6359"/>
<path d="M78.7076 101.337L74.653 115.515C74.4847 115.931 74.6877 116.277 75.0986 116.292L82.48 116.524C82.8909 116.539 83.3612 116.213 83.5295 115.797L87.584 101.618C87.7524 101.203 87.5494 100.857 87.1385 100.842L79.7571 100.61C79.3462 100.6 78.8759 100.921 78.7076 101.337Z" fill="#A6A6A6"/>
<path d="M79.5826 101.36L75.528 115.539C75.3597 115.954 75.5627 116.3 75.9736 116.315L83.355 116.548C83.7659 116.563 84.2362 116.236 84.4045 115.821L88.459 101.642C88.6273 101.227 88.4244 100.88 88.0135 100.865L80.6321 100.633C80.2212 100.623 79.7509 100.945 79.5826 101.36Z" fill="#DBDBDB"/>
<path d="M81.5895 102.073C81.5697 102.419 81.2776 102.686 80.931 102.666C80.5845 102.647 80.3172 102.355 80.337 102.009C80.3568 101.662 80.6489 101.395 80.9954 101.415C81.3419 101.435 81.6093 101.727 81.5895 102.073Z" fill="#455A64"/>
<path d="M91.5379 117.03C92.1617 112.91 91.6865 111.753 94.0628 108.553C95.6222 106.451 94.9489 104.557 92.4984 105.739C88.4884 107.668 86.5675 112.816 86.4141 114.795L91.5379 117.03Z" fill="#AD6359"/>
<path d="M86.2117 127.835C86.2117 127.835 90.0633 123.344 91.1623 119.017C91.9198 116.025 92.8505 109.333 86.3008 102.84C84.7464 101.302 81.4443 100.209 83.0631 103.641C84.2166 106.079 85.682 107.281 86.0979 108.819C86.0979 108.819 81.7265 107.929 80.2463 109.541C79.5829 110.263 77.8205 112.276 76.6719 114.037C76.6719 114.037 76.9888 114.388 77.4541 114.778C77.4541 114.778 76.2115 116.415 76.4739 119.531L86.2117 127.835Z" fill="#AD6359"/>
<path d="M91.4274 116.048C90.6947 114.604 89.0907 111.573 86.9174 109.55C84.5015 107.3 79.239 103.62 77.5954 105.415C76.3924 106.736 78.2736 108.318 78.2736 108.318C78.2736 108.318 75.7785 107.255 74.9518 108.684C74.1993 109.985 75.729 111.123 75.729 111.123C75.729 111.123 74.1052 110.737 73.6201 112.131C73.0359 113.808 76.536 114.342 77.4172 116.548C77.6152 117.047 91.4274 116.048 91.4274 116.048Z" fill="#AD6359"/>
<path d="M84.9707 112.491C84.0597 111.245 81.2626 108.95 78.3467 108.292C78.2824 108.277 78.2329 108.317 78.2923 108.347C81.3468 109.756 83.9112 111.645 84.9509 112.516C84.9608 112.526 84.9806 112.501 84.9707 112.491Z" fill="#263238"/>
<path d="M82.6186 114.863C81.7226 113.869 78.7324 111.634 75.7571 111.065C75.6927 111.05 75.6482 111.1 75.7076 111.12C78.9601 112.46 81.5146 114.077 82.6038 114.883C82.6137 114.898 82.6335 114.878 82.6186 114.863Z" fill="#263238"/>
<path d="M73.1339 119.431L84.1837 131.137C84.1837 131.137 72.5102 144.208 67.0298 142.843C61.5495 141.478 51.1879 126.656 47.866 117.25C45.569 110.742 49.1928 111.785 52.9998 114.975C56.8068 118.165 66.7625 126.088 67.1982 125.969C67.6388 125.85 73.1339 119.431 73.1339 119.431Z" fill="#FBB03B"/>
<path opacity="0.1" d="M69.3943 142.716C68.5329 142.949 67.7359 143.013 67.0378 142.84C61.5575 141.475 51.1959 126.653 47.874 117.247C46.3591 112.954 47.4186 111.95 49.4087 112.677C55.3792 121.525 63.3298 133.384 69.3943 142.716Z" fill="black"/>
<path d="M80.6026 133.08C79.0035 131.468 72.6915 124.623 71.4291 123.05C71.34 122.942 71.3895 122.858 71.4934 122.961C76.4044 127.684 79.1718 131.354 80.662 133.016C80.6966 133.06 80.6422 133.124 80.6026 133.08Z" fill="#263238"/>
<path d="M61.6664 151.78C61.6664 151.78 25.3834 158.407 25.2002 158.19C25.0319 157.997 29.1953 118.789 41.5075 112.162C43.458 111.113 48.171 110.49 50.1859 112.542C55.9187 118.383 62.1416 151.246 61.6664 151.78Z" fill="#FBB03B"/>
<path d="M61.2882 148.532L25.5547 154.655C25.6884 153.577 25.8715 152.291 26.0943 150.842L60.6297 144.922C60.8921 146.292 61.11 147.513 61.2882 148.532Z" fill="#EBEBEB"/>
<path d="M60.2465 143.011L26.4141 148.812C26.518 148.169 26.6319 147.511 26.7557 146.829L59.8554 141.156C59.994 141.789 60.1228 142.412 60.2465 143.011Z" fill="#EBEBEB"/>
<path d="M48.5844 118.507C46.5596 118.497 43.9803 114.778 43.2526 112.097C43.2031 111.914 43.8665 110.262 44.5794 108.215C45.0051 106.974 45.4507 105.579 45.7675 104.273L53.4608 108.23C53.4608 108.23 51.9954 110.767 51.4607 113.037C51.4162 113.23 51.3964 113.408 51.3865 113.586C51.3815 113.611 51.3815 113.64 51.3766 113.675C51.2973 114.733 50.5399 118.517 48.5844 118.507Z" fill="#AD6359"/>
<path d="M53.4642 108.233C53.4642 108.233 51.9988 110.765 51.4642 113.045C51.4246 113.233 51.3949 113.416 51.3899 113.589C51.3899 113.614 51.385 113.644 51.38 113.678C51.1176 113.659 50.8354 113.604 50.5285 113.52C45.8007 112.264 45.8799 106.062 45.9937 104.391L53.4642 108.233Z" fill="#263238"/>
<path d="M45.434 95.3169C44.2013 98.1754 44.8251 106.899 46.7212 109.041C49.4737 112.142 54.4441 112.958 57.2016 109.545C59.8749 106.242 58.865 94.8866 56.7016 92.8935C53.5134 89.9608 47.2509 91.0934 45.434 95.3169Z" fill="#AD6359"/>
<path d="M53.405 101.591C53.4 101.571 53.3604 101.62 53.3654 101.645C53.4397 102.224 53.4198 102.901 52.9149 103.143C52.9 103.148 52.905 103.178 52.9248 103.173C53.5535 103.03 53.5634 102.13 53.405 101.591Z" fill="#263238"/>
<path d="M52.8254 101.031C51.8799 101.046 51.9789 102.93 52.8551 102.92C53.7165 102.906 53.6175 101.021 52.8254 101.031Z" fill="#263238"/>
<path d="M56.8404 101.405C56.8454 101.38 56.8899 101.43 56.8899 101.455C56.9048 102.038 57.0137 102.706 57.5533 102.874C57.5682 102.879 57.5682 102.909 57.5484 102.909C56.8998 102.854 56.7612 101.964 56.8404 101.405Z" fill="#263238"/>
<path d="M57.3293 100.771C58.265 100.652 58.4383 102.532 57.5719 102.64C56.7204 102.749 56.5471 100.87 57.3293 100.771Z" fill="#263238"/>
<path d="M52.0359 100.207C52.2883 100.128 52.5111 100.014 52.7537 99.91C53.026 99.7913 53.2587 99.727 53.427 99.4698C53.5161 99.3314 53.4666 99.094 53.3379 98.9901C53.0408 98.7527 52.6695 98.8121 52.3329 98.9407C51.9666 99.0791 51.724 99.277 51.5259 99.6132C51.3428 99.9397 51.7042 100.311 52.0359 100.207Z" fill="#263238"/>
<path d="M58.0082 99.7785C57.7458 99.7489 57.5032 99.6796 57.2458 99.6252C56.9537 99.5609 56.716 99.5412 56.4982 99.3186C56.3844 99.1999 56.3893 98.9526 56.4933 98.829C56.7408 98.5422 57.117 98.5323 57.4685 98.5916C57.8497 98.6559 58.1319 98.8092 58.3844 99.101C58.6369 99.3829 58.3547 99.8132 58.0082 99.7785Z" fill="#263238"/>
<path d="M53.0598 106.789C53.1786 106.942 53.2925 107.15 53.5004 107.199C53.6984 107.244 53.9509 107.189 54.144 107.145C54.1638 107.14 54.1786 107.164 54.1638 107.179C53.9806 107.382 53.644 107.476 53.3816 107.387C53.1241 107.303 53.0301 107.061 53.0004 106.808C52.9954 106.769 53.04 106.764 53.0598 106.789Z" fill="#263238"/>
<path d="M53.7106 105.067C54.0671 105.557 54.5621 105.809 55.0869 105.883C55.3196 105.918 55.5671 105.913 55.8048 105.878C55.8493 105.873 56.0226 105.839 56.0671 105.829C56.1364 105.814 56.1711 105.755 56.176 105.69V105.686C56.176 105.666 56.0721 104.439 56.0721 104.439C56.2404 104.513 57.1018 104.845 57.0721 104.612C56.8543 102.674 56.6117 100.517 55.983 98.6332C55.9632 98.5689 55.8691 98.5887 55.879 98.653C56.0176 100.527 56.483 102.362 56.6464 104.236C56.3741 104.147 55.9285 103.984 55.6909 103.999C55.6562 104.009 55.8592 105.527 55.8543 105.537C55.1018 105.676 54.5225 105.478 53.7601 105.008C53.7156 104.983 53.671 105.023 53.7106 105.067Z" fill="#263238"/>
<path d="M55.6108 105.787C55.6108 105.787 55.195 106.355 54.6207 106.563C54.4078 106.642 54.1801 106.672 53.9425 106.608C53.4524 106.479 53.4375 106.029 53.5266 105.643C53.6009 105.327 53.7445 105.055 53.7445 105.055C53.7445 105.055 54.4623 105.722 55.6108 105.787Z" fill="#263238"/>
<path d="M54.6207 106.56C54.4078 106.64 54.1801 106.669 53.9425 106.605C53.4524 106.476 53.4375 106.026 53.5266 105.641C54.0514 105.695 54.5712 106.046 54.6207 106.56Z" fill="#FF9CBD"/>
<path d="M44.63 103.191C46.9073 103.369 48.1152 100.664 47.5954 98.4782C47.5954 98.4782 53.645 99.3239 53.9718 94.4723C53.9718 94.4723 55.4124 96.6781 58.155 96.772L58.556 98.4782C59.1798 98.3051 59.8531 96.5445 58.3432 95.1499C58.3432 95.1499 58.2541 92.7266 56.4817 91.2627C54.7045 89.7988 52.9222 90.7385 52.9222 90.7385C52.9222 90.7385 51.5113 89.5417 49.2786 89.8137C47.0459 90.0807 46.1102 92.1084 46.1102 92.1084C46.1102 92.1084 43.1052 92.6573 42.5804 94.7839C42.0557 96.9105 43.1448 98.3447 43.1448 98.3447C43.1448 98.3447 42.3874 99.1755 42.7537 100.996C42.9963 102.163 43.9468 103.142 44.63 103.191Z" fill="#263238"/>
<path d="M53.8414 94.0391C53.881 94.4347 53.8909 94.8353 53.8464 95.226C53.8216 95.6167 53.7375 96.0024 53.6186 96.3734C53.3711 97.1053 52.881 97.7433 52.2028 98.1043C51.5443 98.5197 50.7374 98.5791 49.9651 98.6483C49.574 98.6335 49.1779 98.6483 48.7819 98.6087C48.3858 98.5642 47.9947 98.5148 47.5938 98.4801C47.9799 98.5791 48.371 98.6582 48.7621 98.7472C49.1581 98.8115 49.5591 98.8263 49.9651 98.8659C50.7621 98.8412 51.6087 98.7769 52.3364 98.3516C53.0592 97.9411 53.6038 97.2289 53.8167 96.4376C54.0394 95.6414 54.0295 94.8106 53.8414 94.0391Z" fill="#263238"/>
<path d="M56.9438 96.8737C56.2705 96.6215 55.6468 96.3099 55.1171 95.8698C54.8448 95.6571 54.617 95.3999 54.4141 95.1279C54.2012 94.8559 54.0675 94.5345 53.9141 94.2031C53.9537 94.5592 54.0428 94.9202 54.2359 95.2417C54.4141 95.5631 54.6567 95.8549 54.9438 96.0874C55.2309 96.3198 55.5527 96.5077 55.8943 96.6363C56.226 96.7699 56.5824 96.8638 56.9438 96.8737Z" fill="#263238"/>
<path d="M52.2578 104.532C51.1241 104.478 50.1241 103.662 49.8865 102.499C49.6093 101.125 50.5004 99.7793 51.8717 99.4974C53.248 99.2155 54.5945 100.106 54.8767 101.481C55.1539 102.855 54.2628 104.201 52.8915 104.483C52.6786 104.527 52.4658 104.542 52.2578 104.532ZM52.4905 99.7942C52.3123 99.7843 52.1291 99.7991 51.9459 99.8337C50.7528 100.076 49.9806 101.243 50.2231 102.43C50.4657 103.622 51.6341 104.394 52.8222 104.151C54.0153 103.909 54.7876 102.742 54.545 101.555C54.3371 100.546 53.4707 99.8387 52.4905 99.7942Z" fill="#FBB03B"/>
<path d="M58.0835 104.109C57.1083 104.059 56.2766 103.021 56.1874 101.7C56.1429 101.033 56.2914 100.39 56.6033 99.8901C56.9251 99.3709 57.3904 99.0692 57.9053 99.0346C58.4251 98.9999 58.9202 99.2373 59.3113 99.7072C59.6875 100.157 59.9252 100.775 59.9697 101.443C60.0638 102.843 59.2964 104.039 58.2519 104.109C58.1974 104.109 58.1429 104.109 58.0835 104.109ZM58.0588 99.3659C58.0142 99.3659 57.9746 99.3659 57.9301 99.3659C57.5241 99.3956 57.1578 99.6429 56.8904 100.063C56.6132 100.503 56.4845 101.072 56.5241 101.671C56.6082 102.882 57.3706 103.822 58.2271 103.762C59.0836 103.703 59.7123 102.67 59.6281 101.458C59.5885 100.859 59.3806 100.315 59.0489 99.9149C58.7667 99.5786 58.4152 99.3857 58.0588 99.3659Z" fill="#FBB03B"/>
<path d="M54.8079 101.791L54.5703 101.544C54.9317 101.192 55.7931 100.698 56.4614 101.321L56.2288 101.568C55.6347 101.01 54.8426 101.756 54.8079 101.791Z" fill="#FBB03B"/>
<path d="M44.0463 103.271L43.7344 103.138C43.7987 102.994 44.373 101.713 45.1205 101.535C45.8235 101.372 49.8929 101.431 50.091 101.436L50.0811 101.778C48.7691 101.743 45.7394 101.743 45.1998 101.872C44.7047 101.98 44.1997 102.92 44.0463 103.271Z" fill="#FBB03B"/>
<path d="M46.7758 103.038C46.7758 103.038 45.0876 100.09 43.7658 100.669C42.444 101.248 43.543 105.397 44.9688 106.079C46.3946 106.762 47.053 105.451 47.053 105.451L46.7758 103.038Z" fill="#AD6359"/>
<path d="M44.1159 101.852C44.0911 101.847 44.0862 101.882 44.106 101.892C45.106 102.406 45.5615 103.415 45.8535 104.444C45.5813 104.033 45.1803 103.786 44.6307 104.107C44.601 104.122 44.6258 104.167 44.6555 104.167C45.0862 104.112 45.3882 104.216 45.6456 104.582C45.8288 104.839 45.9377 105.156 46.0565 105.447C46.0961 105.546 46.2694 105.512 46.2446 105.398C46.2446 105.388 46.2397 105.383 46.2397 105.373C46.3783 104.053 45.5218 102.114 44.1159 101.852Z" fill="#263238"/>
<path d="M51.5013 114.602C51.5013 114.583 51.4716 114.583 51.4716 114.602C51.3875 116.249 51.0904 120.062 48.432 119.538C47.3626 119.325 46.4517 118.574 45.6992 117.852C44.9269 117.11 43.2536 115.038 42.1496 112.763C42.1298 112.718 42.0655 112.753 42.0803 112.802C42.2586 113.42 42.7437 114.533 43.3724 115.557C43.9764 116.541 44.6893 117.476 45.5507 118.272C46.3577 119.019 47.3329 119.775 48.4716 119.949C49.5557 120.112 50.4221 119.553 50.8528 118.628C51.4122 117.402 51.5607 115.923 51.5013 114.602Z" fill="#263238"/>
<path d="M37.4409 115.282C31.7774 120.242 17.2572 139.762 20.8217 143.946C24.4109 148.16 46.7926 145.227 53.2382 142.913C55.1541 142.225 49.3471 130.133 47.2233 129.654C45.4559 129.253 35.8814 132.517 35.6685 131.963C35.4309 131.34 37.322 127.097 40.3221 119.372C43.7826 110.47 39.9409 113.091 37.4409 115.282Z" fill="#AD6359"/>
<path d="M56.6719 126.893C61.1819 126.719 62.3651 127.367 66.0929 125.201C68.5385 123.782 70.4989 124.731 68.9345 127.219C66.3751 131.289 60.6076 132.733 58.459 132.659L56.6719 126.893Z" fill="#AD6359"/>
<path d="M44.4375 129.983C44.4375 129.983 49.7099 127.713 54.4971 127.055C57.8091 126.6 65.1211 126.407 71.3144 134.221C72.7847 136.076 73.5619 139.755 70.0618 137.599C67.5766 136.066 66.4628 134.35 64.8538 133.722C64.8538 133.722 65.2895 138.519 63.3736 139.919C62.5171 140.542 60.1408 142.194 58.1111 143.217C58.1111 143.217 57.7695 142.836 57.4031 142.287C57.4031 142.287 55.4922 143.425 52.1704 142.772L44.4375 129.983Z" fill="#AD6359"/>
<path d="M57.7275 127.117C59.1929 128.077 62.2623 130.164 64.1782 132.74C66.3069 135.604 69.6337 141.697 67.5 143.245C65.9356 144.382 64.4604 142.166 64.4604 142.166C64.4604 142.166 65.3069 144.976 63.6683 145.693C62.1781 146.345 61.1385 144.565 61.1385 144.565C61.1385 144.565 61.3563 146.355 59.7969 146.706C57.9206 147.132 57.7721 143.309 55.4998 142.097C54.9948 141.83 57.7275 127.117 57.7275 127.117Z" fill="#AD6359"/>
<path d="M60.7715 134.49C61.9993 135.617 64.133 138.896 64.4944 142.106C64.5043 142.18 64.4498 142.224 64.43 142.16C63.2815 138.708 61.5537 135.731 60.7468 134.514C60.7319 134.494 60.7567 134.475 60.7715 134.49Z" fill="#263238"/>
<path d="M57.9415 136.717C58.902 137.8 60.9515 141.277 61.199 144.541C61.204 144.615 61.1495 144.655 61.1297 144.59C60.0802 140.936 58.6445 138.003 57.9069 136.737C57.9019 136.717 57.9267 136.702 57.9415 136.717Z" fill="#263238"/>
<path d="M64.8563 133.69C66.2623 134.264 67.1336 135.065 68.2722 136.04C68.8366 136.519 69.4059 136.994 70.0198 137.41C70.5792 137.785 71.401 138.359 72.0792 137.919C72.4555 137.677 72.505 137.172 72.4654 136.762C72.4208 136.307 72.0644 135.431 71.8366 135.036C71.8267 135.016 71.8614 134.996 71.8713 135.016C72.0842 135.372 72.4901 136.168 72.5941 136.569C72.6881 136.935 72.7475 137.35 72.6139 137.711C72.3218 138.488 71.3663 138.498 70.7227 138.211C70.3366 138.038 69.9802 137.79 69.6386 137.543C69.3069 137.306 68.99 137.053 68.6732 136.796C68.0296 136.262 67.4207 135.693 66.7821 135.149C66.084 134.556 65.589 134.249 64.8315 133.735C64.8068 133.72 64.8266 133.676 64.8563 133.69Z" fill="#263238"/>
<path d="M67.385 139.085C67.0929 138.22 65.4097 134.58 64.8305 133.72C64.8157 133.7 64.8454 133.675 64.8652 133.695C65.885 134.877 67.4147 137.898 67.7464 138.853C68.0732 139.793 68.4395 140.994 68.3405 141.993C68.187 143.507 67.1573 143.69 66.7761 143.729C66.3256 143.774 65.885 143.635 65.5088 143.388C65.088 143.116 64.7068 142.597 64.4493 142.176C64.4345 142.157 64.4642 142.127 64.484 142.152C64.9493 142.799 65.7612 143.477 66.5929 143.452C66.9543 143.442 67.3306 143.314 67.5781 143.042C67.8702 142.72 67.9346 142.265 67.9445 141.85C67.9593 140.9 67.6821 139.971 67.385 139.085Z" fill="#263238"/>
<path d="M44.4378 129.984L49.9677 145.414C49.9677 145.414 21.9373 148.816 20.0511 143.812C18.165 138.807 30.685 121.215 36.0268 116.265C42.22 110.523 42.715 112.739 40.9279 118.199C39.0565 123.916 35.7347 132.115 35.7347 132.115L44.4378 129.984Z" fill="#FBB03B"/>
<path d="M27.0022 135.207C28.3587 134.445 29.7845 133.817 31.235 133.263C32.6707 132.714 34.1608 132.319 35.6559 131.987C36.5124 131.794 37.3738 131.646 38.2401 131.493C38.2649 131.488 38.2748 131.527 38.2451 131.532C36.7351 131.844 35.245 132.289 33.7846 132.774C32.3291 133.253 30.8835 133.763 29.4429 134.297C28.631 134.598 27.829 134.94 27.027 135.271C26.9874 135.281 26.9676 135.226 27.0022 135.207Z" fill="#263238"/>
<path d="M44.3652 129.937C44.2217 129.957 36.4789 131.683 36.2215 131.772C36.266 131.663 38.0086 127.815 38.271 127.251C38.2958 127.197 38.3205 127.138 38.3453 127.083C38.5087 126.836 38.672 126.594 38.8255 126.337C39.0235 126.01 39.2166 125.689 39.4097 125.362C39.4146 125.352 39.3998 125.342 39.3948 125.352C39.1869 125.669 38.979 125.98 38.771 126.302C38.677 126.45 38.5829 126.599 38.4938 126.747C38.6671 126.346 38.8354 125.946 39.0037 125.545C39.2711 124.902 39.5186 124.254 39.7661 123.607C39.776 123.587 39.7414 123.577 39.7315 123.597C39.2166 124.719 38.6671 125.822 38.1473 126.945C37.6324 128.063 35.6571 132.182 35.672 132.182C35.6868 132.192 44.2217 130.1 44.385 130.051C44.4494 130.021 44.4345 129.927 44.3652 129.937Z" fill="#263238"/>
<path d="M43.9027 139.599C43.2987 137.878 42.7047 136.152 42.0314 134.45C41.6502 133.486 41.2739 132.517 40.8828 131.557C40.868 131.523 40.8036 131.542 40.8135 131.577C41.3531 133.328 41.8977 135.083 42.5215 136.809C43.1403 138.525 43.7393 140.251 44.3829 141.963C44.7443 142.937 45.1404 143.891 45.5612 144.841C45.5711 144.861 45.6008 144.851 45.5958 144.831C45.1156 143.06 44.5116 141.33 43.9027 139.599Z" fill="#263238"/>
<path d="M50.2923 145.68C50.0646 145.2 49.7824 144.513 49.5348 144.038C49.4705 143.915 49.3764 143.929 49.4259 144.058C49.5942 144.488 49.718 144.973 49.8863 145.413C49.4952 145.453 49.0992 145.482 48.7081 145.522C48.2526 145.571 47.8021 145.621 47.3467 145.67C46.4556 145.764 45.5694 145.843 44.6783 145.918C42.8763 146.066 41.0693 146.18 39.2623 146.249C35.6385 146.397 31.9998 146.407 28.3759 146.18C27.3611 146.115 26.3511 146.031 25.3412 145.918C24.3164 145.799 23.2125 145.67 22.3758 145.477C22.351 145.472 22.3411 145.517 22.3659 145.527C23.2273 145.794 24.0343 145.987 24.9254 146.125C25.8363 146.264 26.7472 146.373 27.6631 146.457C29.4898 146.62 31.3216 146.684 33.1533 146.699C36.7821 146.729 40.4158 146.6 44.0397 146.333C45.0545 146.259 46.0694 146.17 47.0793 146.071C47.5893 146.021 48.0992 145.972 48.6091 145.908C49.119 145.838 50.3319 145.759 50.2923 145.68Z" fill="#263238"/>
<path d="M86.4101 145.344H51.1172V146.921H86.4101V145.344Z" fill="#C7C7C7"/>
<path d="M86.4125 145.344V146.921H62.4219L63.6348 145.344H86.4125Z" fill="#A6A6A6"/>
<path d="M67.2734 146.919H98.1603L102.631 125.148H71.7389L67.2734 146.919Z" fill="#A6A6A6"/>
<path d="M68.7109 146.919H99.5978L104.068 125.148H73.1813L68.7109 146.919Z" fill="#C7C7C7"/>
<path d="M89.1788 135.222C89.2134 136.251 88.5203 137.235 87.6391 137.418C86.7579 137.601 86.0153 136.918 85.9856 135.89C85.951 134.861 86.6441 133.877 87.5253 133.694C88.4015 133.511 89.1441 134.193 89.1788 135.222Z" fill="white"/>
<path d="M158.336 192.108C157.876 193.305 135.712 220.154 134.217 220.644C133.653 220.831 129.549 217.834 124.697 214.076C123.648 213.265 122.573 212.419 121.484 211.554C114.405 205.95 107.023 199.838 107.023 199.838L121.796 181.836L135.851 194.046L138.94 196.722C138.94 196.722 152.029 190.233 153.723 189.872C155.411 189.516 158.797 190.911 158.336 192.108Z" fill="#AD6359"/>
<path d="M158.334 192.104C157.873 193.301 135.71 220.151 134.214 220.64C133.526 220.868 127.61 216.397 121.477 211.55L135.843 194.043L138.932 196.719C138.932 196.719 152.022 190.23 153.715 189.869C155.408 189.513 158.794 190.908 158.334 192.104Z" fill="#EBEBEB"/>
<path d="M158.335 192.109C157.874 193.306 135.71 220.155 134.215 220.644C133.651 220.832 129.547 217.835 124.695 214.077L138.933 196.728C138.933 196.728 152.023 190.239 153.716 189.878C155.409 189.517 158.795 190.912 158.335 192.109Z" fill="#FBB03B"/>
<path d="M156.949 191.61C153.123 196.021 138.107 214.166 134.662 218.815C134.632 218.855 134.657 218.874 134.691 218.84C138.578 214.552 153.449 196.288 157.024 191.674C157.098 191.575 157.029 191.516 156.949 191.61Z" fill="#263238"/>
<path d="M151.33 190.812C150.405 191.846 150.053 193.305 150.207 194.413C150.355 195.476 150.82 196.663 151.781 197.4C151.811 197.419 151.85 197.37 151.825 197.345C150.276 195.634 150.048 192.756 151.385 190.862C151.415 190.817 151.365 190.773 151.33 190.812Z" fill="#263238"/>
<path d="M140.827 195.35C139.317 197.13 138.228 199.741 138.777 202.076C138.797 202.165 138.926 202.135 138.946 202.056C139.451 199.736 140.099 197.669 141.074 195.498C141.144 195.35 140.936 195.221 140.827 195.35Z" fill="#263238"/>
<path d="M142.522 194.41C141.012 196.19 139.923 198.802 140.473 201.136C140.492 201.225 140.621 201.195 140.641 201.116C141.146 198.797 141.795 196.729 142.77 194.558C142.834 194.41 142.626 194.286 142.522 194.41Z" fill="#263238"/>
<path d="M144.21 193.468C142.7 195.248 141.611 197.859 142.16 200.194C142.18 200.283 142.309 200.253 142.329 200.174C142.833 197.854 143.482 195.787 144.457 193.616C144.527 193.463 144.319 193.339 144.21 193.468Z" fill="#263238"/>
<path d="M145.905 192.522C144.395 194.302 143.306 196.913 143.856 199.247C143.875 199.336 144.004 199.307 144.024 199.228C144.529 196.908 145.182 194.841 146.153 192.67C146.217 192.522 146.009 192.393 145.905 192.522Z" fill="#263238"/>
<path d="M131.323 214.144C129.659 216.172 132.808 218.753 134.476 216.725C136.139 214.698 132.991 212.116 131.323 214.144Z" fill="white"/>
<path d="M137.628 189.44C136.118 189.727 135.91 191.488 136.232 192.694C136.751 194.653 138.019 196.75 139.489 198.129C139.524 198.164 139.563 198.149 139.588 198.115C139.751 198.184 139.984 198.12 139.999 197.912C140.167 195.899 140.603 193.767 140.148 191.76C139.885 190.588 139.053 189.168 137.628 189.44ZM139.633 194.806C139.573 195.8 139.464 196.784 139.44 197.778C138.806 196.715 138.133 195.686 137.608 194.564C137.355 194.025 137.108 193.471 136.935 192.902C136.662 192.022 136.613 189.01 138.727 190.449C139.89 191.24 139.707 193.624 139.633 194.806Z" fill="#263238"/>
<path d="M136.458 203.163C137.992 201.793 138.883 199.805 139.913 198.069C140.022 197.891 139.869 197.703 139.695 197.663C139.695 197.624 139.671 197.589 139.626 197.594C137.626 197.866 135.373 198.831 133.809 200.126C132.844 200.923 131.992 202.475 133.052 203.588C134.057 204.637 135.562 203.959 136.458 203.163ZM134.532 203.405C131.977 203.351 133.769 200.928 134.502 200.369C134.972 200.008 135.497 199.701 136.017 199.409C137.101 198.801 138.25 198.356 139.379 197.856C138.819 198.677 138.334 199.543 137.804 200.384C137.18 201.387 135.938 203.435 134.532 203.405Z" fill="#263238"/>
<path d="M135.12 191.295L118.669 210.77L69.054 175.474L64.1677 171.997C64.1677 171.997 62.7618 172.917 60.6478 174.055C57.7121 175.632 53.4101 177.62 49.6228 178.13C43.2663 178.99 33.7017 178.773 28.4392 171.567C24.0084 165.499 25.5233 157.67 25.5233 157.67L32.5234 154.767C32.5234 154.767 49.1773 141.246 59.8607 140.964C64.4004 140.84 70.96 144.352 77.0344 148.016C83.0989 151.661 135.12 191.295 135.12 191.295Z" fill="#263238"/>
<path d="M64.1708 171.997C64.1708 171.997 62.7648 172.917 60.6509 174.055C56.9924 169.569 49.2298 161.409 48.9922 161.117L64.1708 171.997Z" fill="#37474F"/>
<path d="M38.6242 150.238C37.6291 150.911 36.6687 151.623 35.6884 152.316C34.7231 152.993 33.728 153.631 32.8121 154.373C31.8765 155.13 30.9903 155.936 30.1091 156.752C29.6834 157.147 29.2626 157.543 28.8517 157.949C28.4457 158.354 27.9902 158.76 27.6487 159.22C27.6189 159.264 27.6784 159.313 27.718 159.289C28.1932 158.992 28.619 158.586 29.0497 158.23C29.515 157.85 29.9754 157.459 30.4408 157.078C31.3369 156.336 32.2478 155.614 33.1438 154.872C34.03 154.136 34.8567 153.324 35.733 152.573C36.6736 151.772 37.6637 151.025 38.639 150.268C38.6588 150.253 38.644 150.224 38.6242 150.238Z" fill="#37474F"/>
<path d="M130.041 189.414C129.046 190.463 128.12 191.59 127.19 192.698C126.254 193.811 125.328 194.928 124.407 196.046C122.566 198.291 120.704 200.527 118.892 202.797C117.897 204.043 116.912 205.299 115.986 206.6C115.947 206.659 116.036 206.723 116.085 206.674C118.066 204.552 119.878 202.282 121.719 200.042C123.561 197.797 125.398 195.542 127.209 193.267C128.2 192.02 129.219 190.784 130.13 189.483C130.165 189.429 130.086 189.37 130.041 189.414Z" fill="#37474F"/>
<path d="M92.7502 192.277C90.2303 190.245 84.4975 186.264 81.8836 184.355C79.2845 182.455 76.6855 180.551 74.0468 178.707C73.2893 178.178 72.522 177.658 71.7596 177.139C70.9972 176.62 70.2051 176.14 69.4576 175.601C69.413 175.571 69.3734 175.641 69.418 175.675C70.1012 176.18 70.7497 176.743 71.423 177.263C72.0665 177.762 72.7052 178.267 73.3537 178.756C74.6211 179.716 75.8983 180.66 77.1756 181.605C79.7647 183.524 82.3737 185.418 85.0074 187.267C86.5025 188.321 91.1115 191.432 92.6413 192.436C92.7254 192.49 92.8393 192.347 92.7502 192.277Z" fill="#37474F"/>
<path d="M109.046 171.379C106.719 169.406 101.407 165.603 98.9662 163.773C96.4959 161.924 94.0404 160.059 91.5601 158.219C89.0997 156.399 86.6392 154.575 84.1837 152.755C81.7975 150.989 79.4262 149.194 76.9063 147.626C75.5251 146.766 74.1092 145.969 72.6538 145.252C71.2379 144.555 69.7676 143.838 68.2527 143.393C68.2081 143.378 68.1834 143.447 68.223 143.467C69.4656 144.179 70.7725 144.782 72.0349 145.475C73.2775 146.157 74.5053 146.874 75.7083 147.621C78.2133 149.179 80.5698 150.945 82.9411 152.69C87.867 156.32 92.778 159.965 97.7385 163.546C100.516 165.549 106.046 169.688 108.932 171.533C109.021 171.587 109.125 171.449 109.046 171.379Z" fill="#37474F"/>
</g>
<defs>
<clipPath id="clip0_2595_20884">
<rect width="216" height="222" fill="white"/>
</clipPath>
</defs>
</svg>
